<svg xmlns="http://www.w3.org/2000/svg" xmlns:xlink="http://www.w3.org/1999/xlink" width="300" zoomAndPan="magnify" viewBox="0 0 224.87999 44.999999" height="60" preserveAspectRatio="xMidYMid meet" version="1.2"><defs><clipPath id="0dcfae735c"><path d="M 0 0.0117188 L 224.761719 0.0117188 L 224.761719 44.988281 L 0 44.988281 Z M 0 0.0117188 "/></clipPath><clipPath id="7413c712bc"><path d="M 72.066406 11.636719 L 93.613281 11.636719 L 93.613281 33.304688 L 72.066406 33.304688 Z M 72.066406 11.636719 "/></clipPath><clipPath id="33a1ed9bec"><path d="M 145 16.339844 L 146.6875 16.339844 L 146.6875 18 L 145 18 Z M 145 16.339844 "/></clipPath><clipPath id="1cb17c9633"><path d="M 144.570312 16.339844 L 146.6875 16.339844 L 146.6875 18.457031 L 144.570312 18.457031 Z M 144.570312 16.339844 "/></clipPath><clipPath id="6191d26819"><path d="M 81.25 21.199219 L 83.851562 21.199219 L 83.851562 23.800781 L 81.25 23.800781 Z M 81.25 21.199219 "/></clipPath><clipPath id="3c067dea24"><path d="M 82.550781 21.199219 C 81.832031 21.199219 81.25 21.78125 81.25 22.5 C 81.25 23.21875 81.832031 23.800781 82.550781 23.800781 C 83.269531 23.800781 83.851562 23.21875 83.851562 22.5 C 83.851562 21.78125 83.269531 21.199219 82.550781 21.199219 Z M 82.550781 21.199219 "/></clipPath></defs><g id="e7b0d13641"><g clip-rule="nonzero" clip-path="url(#0dcfae735c)"><path style=" stroke:none;fill-rule:nonzero;fill:#ffffff;fill-opacity:1;" d="M 0 0.0117188 L 224.878906 0.0117188 L 224.878906 44.988281 L 0 44.988281 Z M 0 0.0117188 "/><path style=" stroke:none;fill-rule:nonzero;fill:#03a524;fill-opacity:1;" d="M 0 0.0117188 L 224.878906 0.0117188 L 224.878906 44.988281 L 0 44.988281 Z M 0 0.0117188 "/></g><g style="fill:#ffffff;fill-opacity:1;"><g transform="translate(95.386306, 25.932228)"><path style="stroke:none" d="M 2.328125 -6.1875 C 2.585938 -6.644531 2.96875 -7.015625 3.46875 -7.296875 C 3.96875 -7.585938 4.535156 -7.734375 5.171875 -7.734375 C 5.859375 -7.734375 6.472656 -7.566406 7.015625 -7.234375 C 7.566406 -6.910156 8 -6.457031 8.3125 -5.875 C 8.625 -5.289062 8.78125 -4.609375 8.78125 -3.828125 C 8.78125 -3.054688 8.625 -2.367188 8.3125 -1.765625 C 8 -1.171875 7.566406 -0.707031 7.015625 -0.375 C 6.460938 -0.0390625 5.847656 0.125 5.171875 0.125 C 4.515625 0.125 3.9375 -0.015625 3.4375 -0.296875 C 2.945312 -0.585938 2.578125 -0.957031 2.328125 -1.40625 L 2.328125 0 L 1.0625 0 L 1.0625 -10.265625 L 2.328125 -10.265625 Z M 7.5 -3.828125 C 7.5 -4.398438 7.378906 -4.898438 7.140625 -5.328125 C 6.910156 -5.753906 6.597656 -6.078125 6.203125 -6.296875 C 5.816406 -6.515625 5.382812 -6.625 4.90625 -6.625 C 4.445312 -6.625 4.019531 -6.507812 3.625 -6.28125 C 3.226562 -6.0625 2.910156 -5.734375 2.671875 -5.296875 C 2.441406 -4.867188 2.328125 -4.375 2.328125 -3.8125 C 2.328125 -3.238281 2.441406 -2.738281 2.671875 -2.3125 C 2.910156 -1.882812 3.226562 -1.554688 3.625 -1.328125 C 4.019531 -1.097656 4.445312 -0.984375 4.90625 -0.984375 C 5.382812 -0.984375 5.816406 -1.097656 6.203125 -1.328125 C 6.597656 -1.554688 6.910156 -1.882812 7.140625 -2.3125 C 7.378906 -2.738281 7.5 -3.242188 7.5 -3.828125 Z M 7.5 -3.828125 "/></g></g><g style="fill:#ffffff;fill-opacity:1;"><g transform="translate(103.56032, 25.932228)"><path style="stroke:none" d="M 8 -4.09375 C 8 -3.851562 7.988281 -3.597656 7.96875 -3.328125 L 1.890625 -3.328125 C 1.929688 -2.578125 2.1875 -1.988281 2.65625 -1.5625 C 3.125 -1.144531 3.691406 -0.9375 4.359375 -0.9375 C 4.898438 -0.9375 5.351562 -1.0625 5.71875 -1.3125 C 6.082031 -1.570312 6.34375 -1.914062 6.5 -2.34375 L 7.859375 -2.34375 C 7.648438 -1.613281 7.238281 -1.019531 6.625 -0.5625 C 6.019531 -0.101562 5.265625 0.125 4.359375 0.125 C 3.640625 0.125 2.992188 -0.0351562 2.421875 -0.359375 C 1.847656 -0.679688 1.398438 -1.140625 1.078125 -1.734375 C 0.753906 -2.335938 0.59375 -3.03125 0.59375 -3.8125 C 0.59375 -4.601562 0.75 -5.289062 1.0625 -5.875 C 1.382812 -6.46875 1.828125 -6.925781 2.390625 -7.25 C 2.960938 -7.570312 3.617188 -7.734375 4.359375 -7.734375 C 5.078125 -7.734375 5.710938 -7.570312 6.265625 -7.25 C 6.828125 -6.9375 7.253906 -6.503906 7.546875 -5.953125 C 7.847656 -5.410156 8 -4.789062 8 -4.09375 Z M 6.703125 -4.359375 C 6.703125 -4.835938 6.59375 -5.25 6.375 -5.59375 C 6.164062 -5.945312 5.878906 -6.210938 5.515625 -6.390625 C 5.148438 -6.566406 4.742188 -6.65625 4.296875 -6.65625 C 3.660156 -6.65625 3.117188 -6.453125 2.671875 -6.046875 C 2.222656 -5.640625 1.96875 -5.078125 1.90625 -4.359375 Z M 6.703125 -4.359375 "/></g></g><g style="fill:#ffffff;fill-opacity:1;"><g transform="translate(110.957166, 25.932228)"><path style="stroke:none" d="M 2.609375 -6.5625 L 2.609375 -2.078125 C 2.609375 -1.710938 2.6875 -1.453125 2.84375 -1.296875 C 3 -1.140625 3.269531 -1.0625 3.65625 -1.0625 L 4.59375 -1.0625 L 4.59375 0 L 3.453125 0 C 2.753906 0 2.226562 -0.160156 1.875 -0.484375 C 1.519531 -0.804688 1.34375 -1.335938 1.34375 -2.078125 L 1.34375 -6.5625 L 0.359375 -6.5625 L 0.359375 -7.609375 L 1.34375 -7.609375 L 1.34375 -9.515625 L 2.609375 -9.515625 L 2.609375 -7.609375 L 4.59375 -7.609375 L 4.59375 -6.5625 Z M 2.609375 -6.5625 "/></g></g><g style="fill:#ffffff;fill-opacity:1;"><g transform="translate(114.801237, 25.932228)"><path style="stroke:none" d="M 11.203125 -7.609375 L 8.828125 0 L 7.515625 0 L 5.6875 -6.03125 L 3.859375 0 L 2.546875 0 L 0.171875 -7.609375 L 1.453125 -7.609375 L 3.203125 -1.21875 L 5.09375 -7.609375 L 6.375 -7.609375 L 8.234375 -1.203125 L 9.953125 -7.609375 Z M 11.203125 -7.609375 "/></g></g><g style="fill:#ffffff;fill-opacity:1;"><g transform="translate(124.974006, 25.932228)"><path style="stroke:none" d=""/></g></g><g style="fill:#ffffff;fill-opacity:1;"><g transform="translate(127.471906, 25.932228)"><path style="stroke:none" d=""/></g></g><g style="fill:#ffffff;fill-opacity:1;"><g transform="translate(129.969806, 25.932228)"><path style="stroke:none" d=""/></g></g><g style="fill:#ffffff;fill-opacity:1;"><g transform="translate(132.467706, 25.932228)"><path style="stroke:none" d=""/></g></g><g style="fill:#ffffff;fill-opacity:1;"><g transform="translate(134.965606, 25.932228)"><path style="stroke:none" d=""/></g></g><g style="fill:#ffffff;fill-opacity:1;"><g transform="translate(137.466233, 25.932228)"><path style="stroke:none" d="M 4.765625 -7.75 C 5.691406 -7.75 6.441406 -7.46875 7.015625 -6.90625 C 7.585938 -6.34375 7.875 -5.535156 7.875 -4.484375 L 7.875 0 L 6.625 0 L 6.625 -4.296875 C 6.625 -5.054688 6.4375 -5.632812 6.0625 -6.03125 C 5.6875 -6.4375 5.171875 -6.640625 4.515625 -6.640625 C 3.847656 -6.640625 3.316406 -6.429688 2.921875 -6.015625 C 2.523438 -5.597656 2.328125 -4.992188 2.328125 -4.203125 L 2.328125 0 L 1.0625 0 L 1.0625 -7.609375 L 2.328125 -7.609375 L 2.328125 -6.515625 C 2.578125 -6.910156 2.914062 -7.210938 3.34375 -7.421875 C 3.78125 -7.640625 4.253906 -7.75 4.765625 -7.75 Z M 4.765625 -7.75 "/></g></g><g style="fill:#ffffff;fill-opacity:1;"><g transform="translate(124.691821, 25.932228)"><path style="stroke:none" d="M 8 -4.09375 C 8 -3.851562 7.988281 -3.597656 7.96875 -3.328125 L 1.890625 -3.328125 C 1.929688 -2.578125 2.1875 -1.988281 2.65625 -1.5625 C 3.125 -1.144531 3.691406 -0.9375 4.359375 -0.9375 C 4.898438 -0.9375 5.351562 -1.0625 5.71875 -1.3125 C 6.082031 -1.570312 6.34375 -1.914062 6.5 -2.34375 L 7.859375 -2.34375 C 7.648438 -1.613281 7.238281 -1.019531 6.625 -0.5625 C 6.019531 -0.101562 5.265625 0.125 4.359375 0.125 C 3.640625 0.125 2.992188 -0.0351562 2.421875 -0.359375 C 1.847656 -0.679688 1.398438 -1.140625 1.078125 -1.734375 C 0.753906 -2.335938 0.59375 -3.03125 0.59375 -3.8125 C 0.59375 -4.601562 0.75 -5.289062 1.0625 -5.875 C 1.382812 -6.46875 1.828125 -6.925781 2.390625 -7.25 C 2.960938 -7.570312 3.617188 -7.734375 4.359375 -7.734375 C 5.078125 -7.734375 5.710938 -7.570312 6.265625 -7.25 C 6.828125 -6.9375 7.253906 -6.503906 7.546875 -5.953125 C 7.847656 -5.410156 8 -4.789062 8 -4.09375 Z M 6.703125 -4.359375 C 6.703125 -4.835938 6.59375 -5.25 6.375 -5.59375 C 6.164062 -5.945312 5.878906 -6.210938 5.515625 -6.390625 C 5.148438 -6.566406 4.742188 -6.65625 4.296875 -6.65625 C 3.660156 -6.65625 3.117188 -6.453125 2.671875 -6.046875 C 2.222656 -5.640625 1.96875 -5.078125 1.90625 -4.359375 Z M 6.703125 -4.359375 "/></g></g><g style="fill:#ffffff;fill-opacity:1;"><g transform="translate(130.520259, 25.932228)"><path style="stroke:none" d="M 8 -4.09375 C 8 -3.851562 7.988281 -3.597656 7.96875 -3.328125 L 1.890625 -3.328125 C 1.929688 -2.578125 2.1875 -1.988281 2.65625 -1.5625 C 3.125 -1.144531 3.691406 -0.9375 4.359375 -0.9375 C 4.898438 -0.9375 5.351562 -1.0625 5.71875 -1.3125 C 6.082031 -1.570312 6.34375 -1.914062 6.5 -2.34375 L 7.859375 -2.34375 C 7.648438 -1.613281 7.238281 -1.019531 6.625 -0.5625 C 6.019531 -0.101562 5.265625 0.125 4.359375 0.125 C 3.640625 0.125 2.992188 -0.0351562 2.421875 -0.359375 C 1.847656 -0.679688 1.398438 -1.140625 1.078125 -1.734375 C 0.753906 -2.335938 0.59375 -3.03125 0.59375 -3.8125 C 0.59375 -4.601562 0.75 -5.289062 1.0625 -5.875 C 1.382812 -6.46875 1.828125 -6.925781 2.390625 -7.25 C 2.960938 -7.570312 3.617188 -7.734375 4.359375 -7.734375 C 5.078125 -7.734375 5.710938 -7.570312 6.265625 -7.25 C 6.828125 -6.9375 7.253906 -6.503906 7.546875 -5.953125 C 7.847656 -5.410156 8 -4.789062 8 -4.09375 Z M 6.703125 -4.359375 C 6.703125 -4.835938 6.59375 -5.25 6.375 -5.59375 C 6.164062 -5.945312 5.878906 -6.210938 5.515625 -6.390625 C 5.148438 -6.566406 4.742188 -6.65625 4.296875 -6.65625 C 3.660156 -6.65625 3.117188 -6.453125 2.671875 -6.046875 C 2.222656 -5.640625 1.96875 -5.078125 1.90625 -4.359375 Z M 6.703125 -4.359375 "/></g></g><path style="fill:none;stroke-width:4;stroke-linecap:butt;stroke-linejoin:miter;stroke:#ffffff;stroke-opacity:1;stroke-miterlimit:4;" d="M 0.0103323 1.988803 L 273.643751 1.988803 " transform="matrix(0.117744,0,0,0.117744,96.428471,28.660361)"/><g clip-rule="nonzero" clip-path="url(#7413c712bc)"><path style=" stroke:none;fill-rule:nonzero;fill:#ffffff;fill-opacity:1;" d="M 93.589844 23.160156 L 93.371094 23.628906 C 91.71875 26.671875 89.171875 28.175781 85.722656 28.140625 C 83.445312 28.121094 81.484375 27.324219 79.832031 25.746094 C 78.183594 24.167969 77.347656 22.25 77.328125 19.996094 C 77.328125 19.84375 77.328125 19.695312 77.332031 19.546875 C 76.855469 19.820312 76.40625 20.171875 75.988281 20.601562 C 74.84375 21.78125 74.253906 23.195312 74.21875 24.851562 C 74.164062 26.597656 74.753906 28.109375 75.988281 29.386719 C 77.222656 30.664062 78.695312 31.265625 80.410156 31.191406 C 81.972656 31.121094 83.304688 30.515625 84.402344 29.367188 C 85.265625 29.433594 86.125 29.484375 87 29.421875 C 87.007812 29.421875 87.019531 29.417969 87.027344 29.417969 C 86.734375 29.875 86.390625 30.308594 85.996094 30.726562 C 84.472656 32.320312 82.621094 33.15625 80.4375 33.230469 C 78.179688 33.304688 76.21875 32.515625 74.546875 30.863281 C 72.878906 29.210938 72.070312 27.257812 72.128906 25.003906 L 72.128906 11.65625 L 74.21875 11.65625 L 74.21875 19.582031 C 75.238281 18.402344 76.421875 17.601562 77.777344 17.167969 C 78.175781 16.0625 78.835938 15.054688 79.765625 14.148438 C 81.425781 12.523438 83.410156 11.695312 85.722656 11.65625 C 87.371094 11.640625 88.914062 12.070312 90.34375 12.949219 C 91.703125 13.792969 92.675781 14.859375 93.261719 16.140625 L 93.5625 16.828125 L 91.191406 16.828125 C 90.015625 14.792969 88.214844 13.75 85.789062 13.691406 C 84.171875 13.65625 82.71875 14.246094 81.433594 15.457031 C 80.089844 16.707031 79.421875 18.1875 79.421875 19.898438 C 79.421875 21.609375 80.046875 23.074219 81.296875 24.296875 C 82.546875 25.519531 84.027344 26.121094 85.734375 26.101562 C 85.855469 26.101562 85.976562 26.097656 86.09375 26.089844 C 86.160156 25.699219 86.191406 25.296875 86.1875 24.878906 C 86.152344 23.222656 85.546875 21.804688 84.378906 20.617188 C 83.472656 19.699219 82.410156 19.136719 81.199219 18.929688 C 81.203125 18.902344 81.320312 17.757812 82.136719 17.003906 C 83.503906 17.328125 84.730469 18.042969 85.820312 19.140625 C 87.460938 20.792969 88.28125 22.753906 88.28125 25.03125 C 88.28125 25.238281 88.273438 25.445312 88.257812 25.652344 C 89.480469 25.183594 90.46875 24.351562 91.222656 23.160156 Z M 93.589844 23.160156 "/></g><path style="fill:none;stroke-width:4;stroke-linecap:butt;stroke-linejoin:miter;stroke:#ffffff;stroke-opacity:1;stroke-miterlimit:4;" d="M 0.0103323 1.989331 L 273.643751 1.989331 " transform="matrix(0.117744,0,0,0.117744,96.428471,27.277487)"/><path style="fill:none;stroke-width:4;stroke-linecap:butt;stroke-linejoin:miter;stroke:#ffffff;stroke-opacity:1;stroke-miterlimit:4;" d="M -0.011195 2.004924 L 13.337571 2.004924 " transform="matrix(0,0.114711,-0.114711,0,98.120612,27.513003)"/><path style="fill:none;stroke-width:4;stroke-linecap:butt;stroke-linejoin:miter;stroke:#ffffff;stroke-opacity:1;stroke-miterlimit:4;" d="M -0.00393045 1.989209 L 13.344835 1.989209 " transform="matrix(0,0.114711,-0.114711,0,100.345372,27.32467)"/><path style="fill:none;stroke-width:4;stroke-linecap:butt;stroke-linejoin:miter;stroke:#ffffff;stroke-opacity:1;stroke-miterlimit:4;" d="M -0.00393045 1.994404 L 13.344835 1.994404 " transform="matrix(0,0.114711,-0.114711,0,102.631124,27.32467)"/><path style="fill:none;stroke-width:4;stroke-linecap:butt;stroke-linejoin:miter;stroke:#ffffff;stroke-opacity:1;stroke-miterlimit:4;" d="M -0.00393045 1.991895 L 13.344835 1.991895 " transform="matrix(0,0.114711,-0.114711,0,104.794899,27.32467)"/><path style="fill:none;stroke-width:4;stroke-linecap:butt;stroke-linejoin:miter;stroke:#ffffff;stroke-opacity:1;stroke-miterlimit:4;" d="M -0.00393045 2.010296 L 13.344835 2.010296 " transform="matrix(0,0.114711,-0.114711,0,107.019666,27.32467)"/><path style="fill:none;stroke-width:4;stroke-linecap:butt;stroke-linejoin:miter;stroke:#ffffff;stroke-opacity:1;stroke-miterlimit:4;" d="M -0.011195 2.007725 L 13.337571 2.007725 " transform="matrix(0,0.114711,-0.114711,0,109.183433,27.513003)"/><path style="fill:none;stroke-width:4;stroke-linecap:butt;stroke-linejoin:miter;stroke:#ffffff;stroke-opacity:1;stroke-miterlimit:4;" d="M -0.011195 2.005217 L 13.337571 2.005217 " transform="matrix(0,0.114711,-0.114711,0,111.347208,27.513003)"/><path style="fill:none;stroke-width:4;stroke-linecap:butt;stroke-linejoin:miter;stroke:#ffffff;stroke-opacity:1;stroke-miterlimit:4;" d="M -0.011195 2.002625 L 13.337571 2.002625 " transform="matrix(0,0.114711,-0.114711,0,113.510973,27.513003)"/><path style="fill:none;stroke-width:4;stroke-linecap:butt;stroke-linejoin:miter;stroke:#ffffff;stroke-opacity:1;stroke-miterlimit:4;" d="M -0.011195 2.000117 L 13.337571 2.000117 " transform="matrix(0,0.114711,-0.114711,0,115.674748,27.513003)"/><path style="fill:none;stroke-width:4;stroke-linecap:butt;stroke-linejoin:miter;stroke:#ffffff;stroke-opacity:1;stroke-miterlimit:4;" d="M -0.011195 1.997609 L 13.337571 1.997609 " transform="matrix(0,0.114711,-0.114711,0,117.838523,27.513003)"/><path style="fill:none;stroke-width:4;stroke-linecap:butt;stroke-linejoin:miter;stroke:#ffffff;stroke-opacity:1;stroke-miterlimit:4;" d="M -0.011195 1.995101 L 13.337571 1.995101 " transform="matrix(0,0.114711,-0.114711,0,120.002297,27.513003)"/><path style="fill:none;stroke-width:4;stroke-linecap:butt;stroke-linejoin:miter;stroke:#ffffff;stroke-opacity:1;stroke-miterlimit:4;" d="M -0.011195 1.99253 L 13.337571 1.99253 " transform="matrix(0,0.114711,-0.114711,0,122.166065,27.513003)"/><path style="fill:none;stroke-width:4;stroke-linecap:butt;stroke-linejoin:miter;stroke:#ffffff;stroke-opacity:1;stroke-miterlimit:4;" d="M -0.011195 1.989938 L 13.337571 1.989938 " transform="matrix(0,0.114711,-0.114711,0,124.32983,27.513003)"/><path style="fill:none;stroke-width:4;stroke-linecap:butt;stroke-linejoin:miter;stroke:#ffffff;stroke-opacity:1;stroke-miterlimit:4;" d="M -0.011195 1.987367 L 13.337571 1.987367 " transform="matrix(0,0.114711,-0.114711,0,126.493598,27.513003)"/><g clip-rule="nonzero" clip-path="url(#33a1ed9bec)"><path style=" stroke:none;fill-rule:nonzero;fill:#ffffff;fill-opacity:1;" d="M 145.644531 17.398438 C 145.765625 17.398438 145.847656 17.332031 145.847656 17.210938 C 145.847656 17.089844 145.765625 17.03125 145.640625 17.03125 L 145.449219 17.03125 L 145.449219 17.398438 Z M 145.277344 16.875 L 145.652344 16.875 C 145.878906 16.875 146.019531 16.992188 146.019531 17.207031 C 146.019531 17.371094 145.929688 17.472656 145.804688 17.515625 L 146.050781 17.925781 L 145.847656 17.925781 L 145.628906 17.554688 C 145.625 17.550781 145.570312 17.554688 145.570312 17.554688 L 145.449219 17.554688 L 145.449219 17.925781 L 145.277344 17.925781 L 145.277344 16.875 "/></g><g clip-rule="nonzero" clip-path="url(#1cb17c9633)"><path style=" stroke:none;fill-rule:nonzero;fill:#ffffff;fill-opacity:1;" d="M 145.628906 16.519531 C 145.511719 16.519531 145.394531 16.542969 145.289062 16.589844 C 145.183594 16.632812 145.089844 16.695312 145.007812 16.777344 C 144.929688 16.859375 144.863281 16.953125 144.820312 17.058594 C 144.773438 17.164062 144.75 17.28125 144.75 17.398438 C 144.75 17.515625 144.773438 17.632812 144.820312 17.738281 C 144.863281 17.84375 144.929688 17.9375 145.007812 18.019531 C 145.089844 18.101562 145.183594 18.164062 145.289062 18.207031 C 145.394531 18.253906 145.511719 18.277344 145.628906 18.277344 C 145.746094 18.277344 145.863281 18.253906 145.972656 18.207031 C 146.074219 18.164062 146.167969 18.101562 146.25 18.019531 C 146.332031 17.9375 146.394531 17.84375 146.4375 17.738281 C 146.484375 17.632812 146.507812 17.515625 146.507812 17.398438 C 146.507812 17.28125 146.484375 17.164062 146.4375 17.058594 C 146.394531 16.953125 146.332031 16.859375 146.25 16.777344 C 146.167969 16.695312 146.074219 16.632812 145.972656 16.589844 C 145.863281 16.542969 145.746094 16.519531 145.628906 16.519531 Z M 145.628906 18.457031 C 145.484375 18.457031 145.347656 18.429688 145.214844 18.375 C 145.089844 18.320312 144.976562 18.246094 144.878906 18.148438 C 144.78125 18.050781 144.707031 17.9375 144.652344 17.8125 C 144.597656 17.679688 144.570312 17.542969 144.570312 17.398438 C 144.570312 17.253906 144.597656 17.117188 144.652344 16.984375 C 144.707031 16.859375 144.78125 16.746094 144.878906 16.648438 C 144.976562 16.550781 145.089844 16.476562 145.214844 16.421875 C 145.347656 16.367188 145.484375 16.339844 145.628906 16.339844 C 145.773438 16.339844 145.910156 16.367188 146.042969 16.421875 C 146.167969 16.476562 146.28125 16.550781 146.378906 16.648438 C 146.476562 16.746094 146.550781 16.859375 146.605469 16.984375 C 146.660156 17.117188 146.6875 17.253906 146.6875 17.398438 C 146.6875 17.542969 146.660156 17.679688 146.605469 17.8125 C 146.550781 17.9375 146.476562 18.050781 146.378906 18.148438 C 146.28125 18.246094 146.167969 18.320312 146.042969 18.375 C 145.910156 18.429688 145.773438 18.457031 145.628906 18.457031 "/></g><g style="fill:#03a524;fill-opacity:1;"><g transform="translate(127.869588, 29.765004)"><path style="stroke:none" d="M 0.0273438 -1.464844 C 0.0273438 -1.800781 0.0976562 -2.09375 0.234375 -2.351562 C 0.371094 -2.609375 0.566406 -2.8125 0.8125 -2.953125 C 1.058594 -3.097656 1.339844 -3.167969 1.652344 -3.167969 C 2.054688 -3.167969 2.390625 -3.066406 2.660156 -2.867188 C 2.929688 -2.664062 3.109375 -2.382812 3.195312 -2.027344 L 3.253906 -1.78125 L 2.324219 -1.78125 L 2.285156 -1.929688 C 2.246094 -2.0625 2.175781 -2.164062 2.070312 -2.242188 C 1.960938 -2.320312 1.820312 -2.359375 1.652344 -2.359375 C 1.433594 -2.359375 1.261719 -2.285156 1.128906 -2.140625 C 0.992188 -1.988281 0.925781 -1.761719 0.925781 -1.464844 C 0.925781 -1.164062 0.992188 -0.9375 1.128906 -0.78125 C 1.261719 -0.636719 1.433594 -0.5625 1.652344 -0.5625 C 1.824219 -0.5625 1.960938 -0.601562 2.070312 -0.675781 C 2.171875 -0.746094 2.246094 -0.855469 2.285156 -0.992188 L 2.328125 -1.136719 L 3.257812 -1.136719 L 3.191406 -0.886719 C 3.101562 -0.542969 2.921875 -0.269531 2.652344 -0.0625 C 2.382812 0.144531 2.046875 0.246094 1.652344 0.246094 C 1.339844 0.246094 1.058594 0.175781 0.8125 0.0351562 C 0.566406 -0.109375 0.371094 -0.3125 0.234375 -0.570312 C 0.0976562 -0.828125 0.0273438 -1.125 0.0273438 -1.464844 Z M 0.429688 -1.464844 C 0.429688 -1.191406 0.480469 -0.957031 0.585938 -0.757812 C 0.691406 -0.566406 0.832031 -0.417969 1.015625 -0.3125 C 1.199219 -0.203125 1.410156 -0.152344 1.652344 -0.152344 C 1.957031 -0.152344 2.210938 -0.226562 2.410156 -0.378906 C 2.609375 -0.53125 2.738281 -0.734375 2.804688 -0.988281 L 3 -0.9375 L 3 -0.738281 L 2.476562 -0.738281 L 2.476562 -0.9375 L 2.667969 -0.882812 C 2.601562 -0.652344 2.480469 -0.472656 2.300781 -0.347656 C 2.121094 -0.222656 1.90625 -0.164062 1.652344 -0.164062 C 1.316406 -0.164062 1.042969 -0.28125 0.832031 -0.515625 C 0.625 -0.746094 0.523438 -1.0625 0.523438 -1.464844 C 0.523438 -1.863281 0.628906 -2.179688 0.832031 -2.40625 C 1.042969 -2.640625 1.316406 -2.757812 1.652344 -2.757812 C 1.90625 -2.757812 2.125 -2.691406 2.304688 -2.566406 C 2.484375 -2.433594 2.609375 -2.257812 2.667969 -2.035156 L 2.476562 -1.980469 L 2.476562 -2.183594 L 3 -2.183594 L 3 -1.980469 L 2.804688 -1.933594 C 2.742188 -2.199219 2.613281 -2.402344 2.417969 -2.546875 C 2.222656 -2.695312 1.964844 -2.769531 1.652344 -2.769531 C 1.410156 -2.769531 1.199219 -2.714844 1.015625 -2.609375 C 0.832031 -2.503906 0.6875 -2.355469 0.585938 -2.160156 C 0.480469 -1.964844 0.429688 -1.734375 0.429688 -1.464844 Z M 0.429688 -1.464844 "/></g></g><g style="fill:#03a524;fill-opacity:1;"><g transform="translate(130.640052, 29.765004)"><path style="stroke:none" d="M 3.199219 -2.917969 L 3.199219 0.199219 L 2.316406 0.199219 L 2.316406 -0.429688 L 2.515625 -0.429688 L 2.683594 -0.328125 C 2.574219 -0.144531 2.417969 -0.00390625 2.21875 0.0976562 C 2.023438 0.195312 1.8125 0.242188 1.582031 0.242188 C 1.324219 0.242188 1.085938 0.1875 0.878906 0.078125 C 0.660156 -0.0351562 0.492188 -0.203125 0.367188 -0.425781 C 0.246094 -0.644531 0.183594 -0.90625 0.183594 -1.210938 L 0.183594 -3.121094 L 1.0625 -3.121094 L 1.0625 -1.273438 C 1.0625 -1.039062 1.117188 -0.863281 1.226562 -0.746094 C 1.332031 -0.632812 1.484375 -0.578125 1.679688 -0.578125 C 1.878906 -0.578125 2.035156 -0.636719 2.144531 -0.753906 C 2.257812 -0.875 2.316406 -1.0625 2.316406 -1.316406 L 2.316406 -3.121094 L 3.199219 -3.121094 Z M 2.800781 -2.917969 L 3 -2.917969 L 3 -2.71875 L 2.515625 -2.71875 L 2.515625 -2.917969 L 2.714844 -2.917969 L 2.714844 -1.316406 C 2.714844 -0.957031 2.621094 -0.679688 2.4375 -0.480469 C 2.25 -0.28125 1.996094 -0.179688 1.679688 -0.179688 C 1.367188 -0.179688 1.121094 -0.277344 0.9375 -0.472656 C 0.753906 -0.664062 0.664062 -0.933594 0.664062 -1.273438 L 0.664062 -2.917969 L 0.863281 -2.917969 L 0.863281 -2.71875 L 0.382812 -2.71875 L 0.382812 -2.917969 L 0.582031 -2.917969 L 0.582031 -1.210938 C 0.582031 -0.972656 0.628906 -0.777344 0.714844 -0.621094 C 0.800781 -0.464844 0.917969 -0.351562 1.0625 -0.277344 C 1.214844 -0.195312 1.386719 -0.15625 1.582031 -0.15625 C 1.75 -0.15625 1.902344 -0.191406 2.039062 -0.261719 C 2.171875 -0.328125 2.273438 -0.417969 2.34375 -0.535156 L 2.714844 -1.132812 L 2.714844 0 L 2.515625 0 L 2.515625 -0.199219 L 3 -0.199219 L 3 0 L 2.800781 0 Z M 2.800781 -2.917969 "/></g></g><g style="fill:#03a524;fill-opacity:1;"><g transform="translate(133.586336, 29.765004)"><path style="stroke:none" d="M 0.210938 -4.140625 L 1.09375 -4.140625 L 1.09375 0.199219 L 0.210938 0.199219 Z M 0.609375 -3.742188 L 0.609375 -0.199219 L 0.695312 -0.199219 L 0.695312 -3.742188 Z M 0.609375 -3.742188 "/></g></g><g style="fill:#03a524;fill-opacity:1;"><g transform="translate(134.43342, 29.765004)"><path style="stroke:none" d="M 1.203125 -2.519531 L 1.203125 -0.800781 C 1.203125 -0.746094 1.207031 -0.707031 1.214844 -0.675781 C 1.222656 -0.65625 1.226562 -0.648438 1.230469 -0.640625 C 1.238281 -0.636719 1.25 -0.628906 1.269531 -0.625 C 1.304688 -0.613281 1.351562 -0.609375 1.40625 -0.609375 L 1.964844 -0.609375 L 1.964844 0.199219 L 1.328125 0.199219 C 1.003906 0.199219 0.757812 0.121094 0.582031 -0.0390625 C 0.40625 -0.203125 0.316406 -0.457031 0.316406 -0.800781 L 0.316406 -2.519531 L 0.515625 -2.519531 L 0.515625 -2.320312 L -0.0625 -2.320312 L -0.0625 -3.121094 L 0.515625 -3.121094 L 0.515625 -2.917969 L 0.316406 -2.917969 L 0.316406 -3.855469 L 1.203125 -3.855469 L 1.203125 -2.917969 L 1 -2.917969 L 1 -3.121094 L 1.964844 -3.121094 L 1.964844 -2.320312 L 1 -2.320312 L 1 -2.519531 Z M 0.800781 -2.71875 L 1.761719 -2.71875 L 1.761719 -2.519531 L 1.5625 -2.519531 L 1.5625 -2.917969 L 1.761719 -2.917969 L 1.761719 -2.71875 L 0.800781 -2.71875 L 0.800781 -3.65625 L 1 -3.65625 L 1 -3.457031 L 0.515625 -3.457031 L 0.515625 -3.65625 L 0.714844 -3.65625 L 0.714844 -2.71875 L 0.136719 -2.71875 L 0.136719 -2.917969 L 0.339844 -2.917969 L 0.339844 -2.519531 L 0.136719 -2.519531 L 0.136719 -2.71875 L 0.714844 -2.71875 L 0.714844 -0.800781 C 0.714844 -0.574219 0.761719 -0.417969 0.855469 -0.332031 C 0.953125 -0.246094 1.109375 -0.199219 1.328125 -0.199219 L 1.761719 -0.199219 L 1.761719 0 L 1.5625 0 L 1.5625 -0.410156 L 1.761719 -0.410156 L 1.761719 -0.210938 L 1.40625 -0.210938 C 1.203125 -0.210938 1.050781 -0.257812 0.953125 -0.355469 C 0.851562 -0.453125 0.800781 -0.601562 0.800781 -0.800781 Z M 0.800781 -2.71875 "/></g></g><g style="fill:#03a524;fill-opacity:1;"><g transform="translate(135.909199, 29.765004)"><path style="stroke:none" d="M 3.199219 -2.917969 L 3.199219 0.199219 L 2.316406 0.199219 L 2.316406 -0.429688 L 2.515625 -0.429688 L 2.683594 -0.328125 C 2.574219 -0.144531 2.417969 -0.00390625 2.21875 0.0976562 C 2.023438 0.195312 1.8125 0.242188 1.582031 0.242188 C 1.324219 0.242188 1.085938 0.1875 0.878906 0.078125 C 0.660156 -0.0351562 0.492188 -0.203125 0.367188 -0.425781 C 0.246094 -0.644531 0.183594 -0.90625 0.183594 -1.210938 L 0.183594 -3.121094 L 1.0625 -3.121094 L 1.0625 -1.273438 C 1.0625 -1.039062 1.117188 -0.863281 1.226562 -0.746094 C 1.332031 -0.632812 1.484375 -0.578125 1.679688 -0.578125 C 1.878906 -0.578125 2.035156 -0.636719 2.144531 -0.753906 C 2.257812 -0.875 2.316406 -1.0625 2.316406 -1.316406 L 2.316406 -3.121094 L 3.199219 -3.121094 Z M 2.800781 -2.917969 L 3 -2.917969 L 3 -2.71875 L 2.515625 -2.71875 L 2.515625 -2.917969 L 2.714844 -2.917969 L 2.714844 -1.316406 C 2.714844 -0.957031 2.621094 -0.679688 2.4375 -0.480469 C 2.25 -0.28125 1.996094 -0.179688 1.679688 -0.179688 C 1.367188 -0.179688 1.121094 -0.277344 0.9375 -0.472656 C 0.753906 -0.664062 0.664062 -0.933594 0.664062 -1.273438 L 0.664062 -2.917969 L 0.863281 -2.917969 L 0.863281 -2.71875 L 0.382812 -2.71875 L 0.382812 -2.917969 L 0.582031 -2.917969 L 0.582031 -1.210938 C 0.582031 -0.972656 0.628906 -0.777344 0.714844 -0.621094 C 0.800781 -0.464844 0.917969 -0.351562 1.0625 -0.277344 C 1.214844 -0.195312 1.386719 -0.15625 1.582031 -0.15625 C 1.75 -0.15625 1.902344 -0.191406 2.039062 -0.261719 C 2.171875 -0.328125 2.273438 -0.417969 2.34375 -0.535156 L 2.714844 -1.132812 L 2.714844 0 L 2.515625 0 L 2.515625 -0.199219 L 3 -0.199219 L 3 0 L 2.800781 0 Z M 2.800781 -2.917969 "/></g></g><g style="fill:#03a524;fill-opacity:1;"><g transform="translate(138.855483, 29.765004)"><path style="stroke:none" d="M 0.71875 -2.535156 C 0.820312 -2.738281 0.96875 -2.894531 1.160156 -3.007812 C 1.347656 -3.117188 1.574219 -3.171875 1.839844 -3.171875 L 2.039062 -3.171875 L 2.039062 -2.273438 L 1.710938 -2.273438 C 1.496094 -2.273438 1.34375 -2.21875 1.246094 -2.117188 C 1.144531 -2.007812 1.09375 -1.832031 1.09375 -1.585938 L 1.09375 0.199219 L 0.210938 0.199219 L 0.210938 -3.121094 L 1.09375 -3.121094 L 1.09375 -2.445312 L 0.894531 -2.445312 Z M 1.074219 -2.355469 L 0.695312 -2.445312 L 0.695312 -2.917969 L 0.894531 -2.917969 L 0.894531 -2.71875 L 0.410156 -2.71875 L 0.410156 -2.917969 L 0.609375 -2.917969 L 0.609375 0 L 0.410156 0 L 0.410156 -0.199219 L 0.894531 -0.199219 L 0.894531 0 L 0.695312 0 L 0.695312 -1.585938 C 0.695312 -1.933594 0.78125 -2.199219 0.953125 -2.386719 C 1.128906 -2.578125 1.378906 -2.671875 1.710938 -2.671875 L 1.839844 -2.671875 L 1.839844 -2.472656 L 1.636719 -2.472656 L 1.636719 -2.972656 L 1.839844 -2.972656 L 1.839844 -2.773438 C 1.648438 -2.773438 1.488281 -2.734375 1.359375 -2.660156 C 1.238281 -2.589844 1.140625 -2.488281 1.074219 -2.355469 Z M 1.074219 -2.355469 "/></g></g><g style="fill:#03a524;fill-opacity:1;"><g transform="translate(140.379213, 29.765004)"><path style="stroke:none" d="M 3.273438 -1.570312 C 3.273438 -1.472656 3.269531 -1.367188 3.257812 -1.257812 L 3.238281 -1.078125 L 0.722656 -1.078125 L 0.722656 -1.277344 L 0.925781 -1.289062 C 0.9375 -1.058594 1.015625 -0.878906 1.152344 -0.753906 C 1.296875 -0.625 1.46875 -0.5625 1.671875 -0.5625 C 1.839844 -0.5625 1.976562 -0.597656 2.082031 -0.671875 C 2.1875 -0.746094 2.261719 -0.84375 2.304688 -0.964844 L 2.351562 -1.101562 L 3.277344 -1.101562 L 3.207031 -0.847656 C 3.117188 -0.523438 2.9375 -0.257812 2.667969 -0.0546875 C 2.398438 0.148438 2.066406 0.246094 1.671875 0.246094 C 1.359375 0.246094 1.078125 0.175781 0.832031 0.0351562 C 0.578125 -0.109375 0.382812 -0.3125 0.238281 -0.574219 C 0.0976562 -0.832031 0.0273438 -1.128906 0.0273438 -1.464844 C 0.0273438 -1.800781 0.0976562 -2.097656 0.234375 -2.351562 C 0.371094 -2.613281 0.570312 -2.816406 0.820312 -2.957031 C 1.070312 -3.097656 1.355469 -3.167969 1.671875 -3.167969 C 1.984375 -3.167969 2.261719 -3.097656 2.507812 -2.960938 C 2.753906 -2.820312 2.941406 -2.628906 3.078125 -2.382812 C 3.207031 -2.144531 3.273438 -1.871094 3.273438 -1.570312 Z M 2.875 -1.570312 C 2.875 -1.804688 2.824219 -2.011719 2.726562 -2.191406 C 2.628906 -2.371094 2.488281 -2.511719 2.308594 -2.613281 C 2.128906 -2.714844 1.914062 -2.769531 1.671875 -2.769531 C 1.421875 -2.769531 1.203125 -2.714844 1.015625 -2.609375 C 0.832031 -2.507812 0.6875 -2.359375 0.585938 -2.164062 C 0.480469 -1.96875 0.429688 -1.734375 0.429688 -1.464844 C 0.429688 -1.195312 0.484375 -0.964844 0.589844 -0.765625 C 0.699219 -0.566406 0.84375 -0.417969 1.027344 -0.3125 C 1.214844 -0.207031 1.429688 -0.152344 1.671875 -0.152344 C 1.976562 -0.152344 2.226562 -0.226562 2.425781 -0.375 C 2.625 -0.523438 2.757812 -0.71875 2.824219 -0.953125 L 3.015625 -0.902344 L 3.015625 -0.699219 L 2.492188 -0.699219 L 2.492188 -0.902344 L 2.683594 -0.835938 C 2.609375 -0.628906 2.488281 -0.46875 2.3125 -0.34375 C 2.136719 -0.222656 1.925781 -0.164062 1.671875 -0.164062 C 1.367188 -0.164062 1.105469 -0.261719 0.886719 -0.457031 C 0.667969 -0.65625 0.546875 -0.925781 0.523438 -1.265625 L 0.511719 -1.480469 L 3.058594 -1.480469 L 3.058594 -1.277344 L 2.859375 -1.300781 C 2.871094 -1.394531 2.875 -1.484375 2.875 -1.570312 Z M 2.375 -1.671875 C 2.375 -1.820312 2.34375 -1.945312 2.28125 -2.046875 C 2.21875 -2.144531 2.136719 -2.222656 2.03125 -2.273438 C 1.917969 -2.328125 1.792969 -2.359375 1.652344 -2.359375 C 1.457031 -2.359375 1.292969 -2.296875 1.160156 -2.175781 C 1.027344 -2.054688 0.949219 -1.878906 0.929688 -1.65625 L 0.730469 -1.671875 L 0.730469 -1.871094 L 2.574219 -1.871094 L 2.574219 -1.671875 Z M 2.773438 -1.472656 L 0.511719 -1.472656 L 0.53125 -1.691406 C 0.558594 -2.019531 0.679688 -2.28125 0.890625 -2.472656 C 1.101562 -2.660156 1.355469 -2.757812 1.652344 -2.757812 C 1.851562 -2.757812 2.039062 -2.714844 2.207031 -2.632812 C 2.382812 -2.546875 2.519531 -2.421875 2.621094 -2.253906 C 2.722656 -2.089844 2.773438 -1.894531 2.773438 -1.671875 Z M 2.773438 -1.472656 "/></g></g><g style="fill:#03a524;fill-opacity:1;"><g transform="translate(143.218939, 29.765004)"><path style="stroke:none" d="M 1.445312 0.246094 C 1.191406 0.246094 0.964844 0.203125 0.761719 0.117188 C 0.554688 0.0273438 0.386719 -0.101562 0.261719 -0.265625 C 0.132812 -0.433594 0.0625 -0.628906 0.0507812 -0.847656 L 0.0390625 -1.058594 L 0.933594 -1.058594 L 0.949219 -0.878906 C 0.957031 -0.789062 1 -0.71875 1.078125 -0.660156 C 1.164062 -0.59375 1.285156 -0.5625 1.4375 -0.5625 C 1.578125 -0.5625 1.683594 -0.589844 1.753906 -0.644531 C 1.808594 -0.683594 1.835938 -0.734375 1.835938 -0.792969 C 1.835938 -0.820312 1.832031 -0.84375 1.820312 -0.859375 C 1.8125 -0.875 1.792969 -0.890625 1.769531 -0.902344 C 1.671875 -0.957031 1.511719 -1.011719 1.289062 -1.070312 C 1.0625 -1.128906 0.875 -1.191406 0.726562 -1.253906 C 0.5625 -1.324219 0.421875 -1.429688 0.304688 -1.566406 C 0.171875 -1.71875 0.109375 -1.914062 0.109375 -2.152344 C 0.109375 -2.34375 0.164062 -2.519531 0.28125 -2.679688 C 0.390625 -2.832031 0.542969 -2.953125 0.738281 -3.039062 C 0.929688 -3.125 1.140625 -3.167969 1.378906 -3.167969 C 1.75 -3.167969 2.054688 -3.070312 2.289062 -2.878906 C 2.535156 -2.675781 2.664062 -2.402344 2.683594 -2.0625 L 2.691406 -1.851562 L 1.8125 -1.851562 L 1.796875 -2.039062 C 1.792969 -2.132812 1.753906 -2.207031 1.6875 -2.265625 C 1.613281 -2.328125 1.503906 -2.359375 1.363281 -2.359375 C 1.234375 -2.359375 1.132812 -2.332031 1.066406 -2.285156 C 1.039062 -2.265625 1.019531 -2.246094 1.007812 -2.222656 C 1 -2.203125 0.992188 -2.179688 0.992188 -2.152344 C 0.992188 -2.113281 1.003906 -2.078125 1.027344 -2.058594 C 1.070312 -2.015625 1.125 -1.980469 1.195312 -1.953125 C 1.28125 -1.917969 1.40625 -1.878906 1.566406 -1.832031 C 1.785156 -1.773438 1.960938 -1.714844 2.101562 -1.65625 C 2.261719 -1.589844 2.398438 -1.488281 2.515625 -1.355469 C 2.640625 -1.207031 2.703125 -1.023438 2.710938 -0.796875 C 2.710938 -0.59375 2.652344 -0.410156 2.539062 -0.25 C 2.429688 -0.0898438 2.277344 0.03125 2.082031 0.121094 C 1.894531 0.207031 1.683594 0.246094 1.445312 0.246094 Z M 1.445312 -0.152344 C 1.625 -0.152344 1.78125 -0.183594 1.917969 -0.242188 C 2.046875 -0.300781 2.144531 -0.378906 2.210938 -0.476562 C 2.277344 -0.570312 2.308594 -0.675781 2.308594 -0.789062 C 2.308594 -0.917969 2.273438 -1.023438 2.210938 -1.09375 C 2.136719 -1.179688 2.050781 -1.246094 1.949219 -1.289062 C 1.824219 -1.339844 1.660156 -1.394531 1.460938 -1.449219 C 1.285156 -1.496094 1.148438 -1.539062 1.046875 -1.582031 C 0.929688 -1.628906 0.828125 -1.691406 0.746094 -1.773438 C 0.644531 -1.875 0.59375 -2 0.59375 -2.152344 C 0.59375 -2.246094 0.613281 -2.332031 0.65625 -2.410156 C 0.695312 -2.484375 0.753906 -2.550781 0.832031 -2.605469 C 0.96875 -2.707031 1.148438 -2.757812 1.363281 -2.757812 C 1.601562 -2.757812 1.792969 -2.695312 1.941406 -2.574219 C 2.097656 -2.445312 2.183594 -2.273438 2.199219 -2.066406 L 1.996094 -2.050781 L 1.996094 -2.25 L 2.484375 -2.25 L 2.484375 -2.050781 L 2.285156 -2.042969 C 2.273438 -2.265625 2.191406 -2.441406 2.035156 -2.566406 C 1.875 -2.703125 1.65625 -2.769531 1.378906 -2.769531 C 1.199219 -2.769531 1.039062 -2.738281 0.902344 -2.675781 C 0.773438 -2.617188 0.671875 -2.542969 0.605469 -2.445312 C 0.539062 -2.355469 0.507812 -2.257812 0.507812 -2.152344 C 0.507812 -2.011719 0.542969 -1.902344 0.609375 -1.824219 C 0.683594 -1.734375 0.777344 -1.664062 0.886719 -1.621094 C 1.011719 -1.566406 1.179688 -1.511719 1.386719 -1.457031 C 1.640625 -1.390625 1.832031 -1.324219 1.960938 -1.253906 C 2.050781 -1.207031 2.117188 -1.140625 2.164062 -1.0625 C 2.210938 -0.984375 2.234375 -0.894531 2.234375 -0.792969 C 2.234375 -0.605469 2.15625 -0.449219 1.996094 -0.328125 C 1.855469 -0.21875 1.667969 -0.164062 1.4375 -0.164062 C 1.195312 -0.164062 0.996094 -0.222656 0.835938 -0.339844 C 0.667969 -0.46875 0.570312 -0.632812 0.550781 -0.839844 L 0.75 -0.859375 L 0.75 -0.65625 L 0.25 -0.65625 L 0.25 -0.859375 L 0.449219 -0.871094 C 0.457031 -0.730469 0.5 -0.609375 0.582031 -0.507812 C 0.664062 -0.398438 0.777344 -0.3125 0.921875 -0.25 C 1.074219 -0.183594 1.246094 -0.152344 1.445312 -0.152344 Z M 1.445312 -0.152344 "/></g></g><g style="fill:#ffffff;fill-opacity:1;"><g transform="translate(127.869588, 29.765004)"><path style="stroke:none" d="M 0.234375 -1.46875 C 0.234375 -1.769531 0.289062 -2.03125 0.40625 -2.25 C 0.53125 -2.476562 0.695312 -2.65625 0.90625 -2.78125 C 1.125 -2.90625 1.375 -2.96875 1.65625 -2.96875 C 2.007812 -2.96875 2.300781 -2.878906 2.53125 -2.703125 C 2.769531 -2.535156 2.925781 -2.296875 3 -1.984375 L 2.484375 -1.984375 C 2.429688 -2.160156 2.332031 -2.300781 2.1875 -2.40625 C 2.039062 -2.507812 1.863281 -2.5625 1.65625 -2.5625 C 1.375 -2.5625 1.144531 -2.460938 0.96875 -2.265625 C 0.800781 -2.078125 0.71875 -1.8125 0.71875 -1.46875 C 0.71875 -1.113281 0.800781 -0.835938 0.96875 -0.640625 C 1.144531 -0.453125 1.375 -0.359375 1.65625 -0.359375 C 1.863281 -0.359375 2.035156 -0.40625 2.171875 -0.5 C 2.316406 -0.601562 2.421875 -0.75 2.484375 -0.9375 L 3 -0.9375 C 2.914062 -0.632812 2.753906 -0.394531 2.515625 -0.21875 C 2.285156 -0.0390625 2 0.046875 1.65625 0.046875 C 1.375 0.046875 1.125 -0.015625 0.90625 -0.140625 C 0.695312 -0.265625 0.53125 -0.4375 0.40625 -0.65625 C 0.289062 -0.882812 0.234375 -1.15625 0.234375 -1.46875 Z M 0.234375 -1.46875 "/></g></g><g style="fill:#ffffff;fill-opacity:1;"><g transform="translate(130.640052, 29.765004)"><path style="stroke:none" d="M 3 -2.921875 L 3 0 L 2.515625 0 L 2.515625 -0.4375 C 2.421875 -0.28125 2.289062 -0.160156 2.125 -0.078125 C 1.957031 0.00390625 1.773438 0.046875 1.578125 0.046875 C 1.347656 0.046875 1.144531 0 0.96875 -0.09375 C 0.789062 -0.1875 0.648438 -0.328125 0.546875 -0.515625 C 0.441406 -0.703125 0.390625 -0.929688 0.390625 -1.203125 L 0.390625 -2.921875 L 0.859375 -2.921875 L 0.859375 -1.265625 C 0.859375 -0.984375 0.929688 -0.765625 1.078125 -0.609375 C 1.222656 -0.453125 1.421875 -0.375 1.671875 -0.375 C 1.929688 -0.375 2.132812 -0.453125 2.28125 -0.609375 C 2.4375 -0.773438 2.515625 -1.007812 2.515625 -1.3125 L 2.515625 -2.921875 Z M 3 -2.921875 "/></g></g><g style="fill:#ffffff;fill-opacity:1;"><g transform="translate(133.586336, 29.765004)"><path style="stroke:none" d="M 0.890625 -3.9375 L 0.890625 0 L 0.40625 0 L 0.40625 -3.9375 Z M 0.890625 -3.9375 "/></g></g><g style="fill:#ffffff;fill-opacity:1;"><g transform="translate(134.43342, 29.765004)"><path style="stroke:none" d="M 1 -2.515625 L 1 -0.796875 C 1 -0.660156 1.03125 -0.5625 1.09375 -0.5 C 1.15625 -0.4375 1.257812 -0.40625 1.40625 -0.40625 L 1.765625 -0.40625 L 1.765625 0 L 1.328125 0 C 1.054688 0 0.851562 -0.0625 0.71875 -0.1875 C 0.582031 -0.3125 0.515625 -0.515625 0.515625 -0.796875 L 0.515625 -2.515625 L 0.140625 -2.515625 L 0.140625 -2.921875 L 0.515625 -2.921875 L 0.515625 -3.65625 L 1 -3.65625 L 1 -2.921875 L 1.765625 -2.921875 L 1.765625 -2.515625 Z M 1 -2.515625 "/></g></g><g style="fill:#ffffff;fill-opacity:1;"><g transform="translate(135.909199, 29.765004)"><path style="stroke:none" d="M 3 -2.921875 L 3 0 L 2.515625 0 L 2.515625 -0.4375 C 2.421875 -0.28125 2.289062 -0.160156 2.125 -0.078125 C 1.957031 0.00390625 1.773438 0.046875 1.578125 0.046875 C 1.347656 0.046875 1.144531 0 0.96875 -0.09375 C 0.789062 -0.1875 0.648438 -0.328125 0.546875 -0.515625 C 0.441406 -0.703125 0.390625 -0.929688 0.390625 -1.203125 L 0.390625 -2.921875 L 0.859375 -2.921875 L 0.859375 -1.265625 C 0.859375 -0.984375 0.929688 -0.765625 1.078125 -0.609375 C 1.222656 -0.453125 1.421875 -0.375 1.671875 -0.375 C 1.929688 -0.375 2.132812 -0.453125 2.28125 -0.609375 C 2.4375 -0.773438 2.515625 -1.007812 2.515625 -1.3125 L 2.515625 -2.921875 Z M 3 -2.921875 "/></g></g><g style="fill:#ffffff;fill-opacity:1;"><g transform="translate(138.855483, 29.765004)"><path style="stroke:none" d="M 0.890625 -2.453125 C 0.972656 -2.617188 1.09375 -2.742188 1.25 -2.828125 C 1.414062 -2.921875 1.613281 -2.96875 1.84375 -2.96875 L 1.84375 -2.46875 L 1.703125 -2.46875 C 1.160156 -2.46875 0.890625 -2.175781 0.890625 -1.59375 L 0.890625 0 L 0.40625 0 L 0.40625 -2.921875 L 0.890625 -2.921875 Z M 0.890625 -2.453125 "/></g></g><g style="fill:#ffffff;fill-opacity:1;"><g transform="translate(140.379213, 29.765004)"><path style="stroke:none" d="M 3.078125 -1.578125 C 3.078125 -1.484375 3.070312 -1.382812 3.0625 -1.28125 L 0.71875 -1.28125 C 0.738281 -0.988281 0.835938 -0.757812 1.015625 -0.59375 C 1.203125 -0.4375 1.421875 -0.359375 1.671875 -0.359375 C 1.878906 -0.359375 2.050781 -0.40625 2.1875 -0.5 C 2.332031 -0.601562 2.4375 -0.738281 2.5 -0.90625 L 3.015625 -0.90625 C 2.941406 -0.625 2.785156 -0.394531 2.546875 -0.21875 C 2.304688 -0.0390625 2.015625 0.046875 1.671875 0.046875 C 1.390625 0.046875 1.140625 -0.015625 0.921875 -0.140625 C 0.710938 -0.265625 0.546875 -0.441406 0.421875 -0.671875 C 0.296875 -0.898438 0.234375 -1.164062 0.234375 -1.46875 C 0.234375 -1.769531 0.289062 -2.03125 0.40625 -2.25 C 0.53125 -2.476562 0.703125 -2.65625 0.921875 -2.78125 C 1.140625 -2.90625 1.390625 -2.96875 1.671875 -2.96875 C 1.953125 -2.96875 2.195312 -2.90625 2.40625 -2.78125 C 2.625 -2.664062 2.789062 -2.5 2.90625 -2.28125 C 3.019531 -2.070312 3.078125 -1.835938 3.078125 -1.578125 Z M 2.578125 -1.671875 C 2.578125 -1.859375 2.535156 -2.015625 2.453125 -2.140625 C 2.367188 -2.273438 2.253906 -2.378906 2.109375 -2.453125 C 1.972656 -2.523438 1.820312 -2.5625 1.65625 -2.5625 C 1.40625 -2.5625 1.191406 -2.484375 1.015625 -2.328125 C 0.847656 -2.171875 0.753906 -1.953125 0.734375 -1.671875 Z M 2.578125 -1.671875 "/></g></g><g style="fill:#ffffff;fill-opacity:1;"><g transform="translate(143.218939, 29.765004)"><path style="stroke:none" d="M 1.4375 0.046875 C 1.21875 0.046875 1.019531 0.0078125 0.84375 -0.0625 C 0.664062 -0.144531 0.523438 -0.253906 0.421875 -0.390625 C 0.316406 -0.523438 0.257812 -0.679688 0.25 -0.859375 L 0.75 -0.859375 C 0.757812 -0.710938 0.828125 -0.59375 0.953125 -0.5 C 1.078125 -0.40625 1.238281 -0.359375 1.4375 -0.359375 C 1.625 -0.359375 1.769531 -0.398438 1.875 -0.484375 C 1.976562 -0.566406 2.03125 -0.671875 2.03125 -0.796875 C 2.03125 -0.921875 1.972656 -1.015625 1.859375 -1.078125 C 1.742188 -1.140625 1.570312 -1.203125 1.34375 -1.265625 C 1.125 -1.316406 0.945312 -1.375 0.8125 -1.4375 C 0.675781 -1.5 0.554688 -1.585938 0.453125 -1.703125 C 0.359375 -1.816406 0.3125 -1.96875 0.3125 -2.15625 C 0.3125 -2.300781 0.351562 -2.4375 0.4375 -2.5625 C 0.53125 -2.6875 0.65625 -2.785156 0.8125 -2.859375 C 0.976562 -2.929688 1.164062 -2.96875 1.375 -2.96875 C 1.695312 -2.96875 1.957031 -2.882812 2.15625 -2.71875 C 2.363281 -2.5625 2.472656 -2.335938 2.484375 -2.046875 L 2 -2.046875 C 1.988281 -2.203125 1.925781 -2.328125 1.8125 -2.421875 C 1.695312 -2.515625 1.546875 -2.5625 1.359375 -2.5625 C 1.191406 -2.5625 1.054688 -2.519531 0.953125 -2.4375 C 0.847656 -2.363281 0.796875 -2.269531 0.796875 -2.15625 C 0.796875 -2.0625 0.828125 -1.984375 0.890625 -1.921875 C 0.953125 -1.859375 1.03125 -1.804688 1.125 -1.765625 C 1.21875 -1.722656 1.347656 -1.679688 1.515625 -1.640625 C 1.722656 -1.585938 1.890625 -1.53125 2.015625 -1.46875 C 2.148438 -1.414062 2.265625 -1.332031 2.359375 -1.21875 C 2.453125 -1.113281 2.503906 -0.972656 2.515625 -0.796875 C 2.515625 -0.628906 2.46875 -0.484375 2.375 -0.359375 C 2.289062 -0.234375 2.164062 -0.132812 2 -0.0625 C 1.84375 0.0078125 1.65625 0.046875 1.4375 0.046875 Z M 1.4375 0.046875 "/></g></g><g clip-rule="nonzero" clip-path="url(#6191d26819)"><g clip-rule="nonzero" clip-path="url(#3c067dea24)"><path style=" stroke:none;fill-rule:nonzero;fill:#ffffff;fill-opacity:1;" d="M 81.25 21.199219 L 83.851562 21.199219 L 83.851562 23.800781 L 81.25 23.800781 Z M 81.25 21.199219 "/></g></g><g style="fill:#ffffff;fill-opacity:1;"><g transform="translate(96.091787, 32.785787)"><path style="stroke:none" d="M 0.453125 -1.21875 L 0.359375 -0.75 L 0.859375 -0.75 L 0.828125 -0.625 L 0.34375 -0.625 L 0.25 -0.140625 L 0.8125 -0.140625 L 0.78125 0 L 0.046875 0 L 0.296875 -1.359375 L 1.03125 -1.359375 L 1 -1.21875 Z M 0.453125 -1.21875 "/></g></g><g style="fill:#ffffff;fill-opacity:1;"><g transform="translate(97.093244, 32.785787)"><path style="stroke:none" d="M 1.53125 -1.09375 C 1.644531 -1.09375 1.734375 -1.0625 1.796875 -1 C 1.859375 -0.9375 1.890625 -0.851562 1.890625 -0.75 C 1.890625 -0.707031 1.890625 -0.664062 1.890625 -0.625 L 1.765625 0 L 1.59375 0 L 1.703125 -0.609375 C 1.710938 -0.628906 1.71875 -0.65625 1.71875 -0.6875 C 1.71875 -0.769531 1.691406 -0.832031 1.640625 -0.875 C 1.597656 -0.914062 1.539062 -0.9375 1.46875 -0.9375 C 1.382812 -0.9375 1.304688 -0.910156 1.234375 -0.859375 C 1.171875 -0.804688 1.128906 -0.726562 1.109375 -0.625 L 1 0 L 0.828125 0 L 0.9375 -0.609375 C 0.9375 -0.640625 0.9375 -0.671875 0.9375 -0.703125 C 0.9375 -0.773438 0.914062 -0.832031 0.875 -0.875 C 0.832031 -0.914062 0.773438 -0.9375 0.703125 -0.9375 C 0.609375 -0.9375 0.523438 -0.90625 0.453125 -0.84375 C 0.390625 -0.789062 0.347656 -0.707031 0.328125 -0.59375 L 0.234375 0 L 0.046875 0 L 0.234375 -1.078125 L 0.421875 -1.078125 L 0.390625 -0.921875 C 0.429688 -0.972656 0.484375 -1.015625 0.546875 -1.046875 C 0.617188 -1.078125 0.691406 -1.09375 0.765625 -1.09375 C 0.847656 -1.09375 0.921875 -1.070312 0.984375 -1.03125 C 1.046875 -0.988281 1.085938 -0.929688 1.109375 -0.859375 C 1.148438 -0.929688 1.207031 -0.988281 1.28125 -1.03125 C 1.363281 -1.070312 1.445312 -1.09375 1.53125 -1.09375 Z M 1.53125 -1.09375 "/></g></g><g style="fill:#ffffff;fill-opacity:1;"><g transform="translate(99.103971, 32.785787)"><path style="stroke:none" d="M 0.390625 -0.875 C 0.429688 -0.9375 0.488281 -0.988281 0.5625 -1.03125 C 0.644531 -1.070312 0.734375 -1.09375 0.828125 -1.09375 C 0.910156 -1.09375 0.984375 -1.070312 1.046875 -1.03125 C 1.109375 -1 1.15625 -0.953125 1.1875 -0.890625 C 1.226562 -0.828125 1.25 -0.75 1.25 -0.65625 C 1.25 -0.625 1.242188 -0.585938 1.234375 -0.546875 C 1.210938 -0.429688 1.171875 -0.332031 1.109375 -0.25 C 1.054688 -0.164062 0.984375 -0.0976562 0.890625 -0.046875 C 0.804688 -0.00390625 0.71875 0.015625 0.625 0.015625 C 0.53125 0.015625 0.453125 -0.00390625 0.390625 -0.046875 C 0.335938 -0.0859375 0.296875 -0.140625 0.265625 -0.203125 L 0.140625 0.515625 L -0.03125 0.515625 L 0.234375 -1.078125 L 0.421875 -1.078125 Z M 1.046875 -0.546875 C 1.054688 -0.566406 1.0625 -0.59375 1.0625 -0.625 C 1.0625 -0.71875 1.03125 -0.789062 0.96875 -0.84375 C 0.914062 -0.90625 0.847656 -0.9375 0.765625 -0.9375 C 0.691406 -0.9375 0.625 -0.921875 0.5625 -0.890625 C 0.507812 -0.859375 0.457031 -0.8125 0.40625 -0.75 C 0.363281 -0.6875 0.335938 -0.613281 0.328125 -0.53125 C 0.316406 -0.507812 0.3125 -0.484375 0.3125 -0.453125 C 0.3125 -0.359375 0.335938 -0.28125 0.390625 -0.21875 C 0.453125 -0.164062 0.53125 -0.140625 0.625 -0.140625 C 0.6875 -0.140625 0.75 -0.15625 0.8125 -0.1875 C 0.875 -0.21875 0.925781 -0.265625 0.96875 -0.328125 C 1.007812 -0.390625 1.035156 -0.460938 1.046875 -0.546875 Z M 1.046875 -0.546875 "/></g></g><g style="fill:#ffffff;fill-opacity:1;"><g transform="translate(100.423633, 32.785787)"><path style="stroke:none" d="M 0.515625 0.015625 C 0.429688 0.015625 0.351562 0 0.28125 -0.03125 C 0.21875 -0.0703125 0.164062 -0.125 0.125 -0.1875 C 0.0820312 -0.257812 0.0625 -0.335938 0.0625 -0.421875 C 0.0625 -0.546875 0.0859375 -0.65625 0.140625 -0.75 C 0.203125 -0.851562 0.28125 -0.9375 0.375 -1 C 0.476562 -1.0625 0.59375 -1.09375 0.71875 -1.09375 C 0.800781 -1.09375 0.878906 -1.070312 0.953125 -1.03125 C 1.023438 -1 1.078125 -0.945312 1.109375 -0.875 C 1.148438 -0.8125 1.171875 -0.734375 1.171875 -0.640625 C 1.171875 -0.515625 1.140625 -0.398438 1.078125 -0.296875 C 1.023438 -0.203125 0.945312 -0.125 0.84375 -0.0625 C 0.75 -0.0078125 0.640625 0.015625 0.515625 0.015625 Z M 0.546875 -0.140625 C 0.628906 -0.140625 0.703125 -0.160156 0.765625 -0.203125 C 0.835938 -0.242188 0.890625 -0.300781 0.921875 -0.375 C 0.960938 -0.457031 0.984375 -0.539062 0.984375 -0.625 C 0.984375 -0.726562 0.953125 -0.804688 0.890625 -0.859375 C 0.835938 -0.910156 0.769531 -0.9375 0.6875 -0.9375 C 0.601562 -0.9375 0.523438 -0.910156 0.453125 -0.859375 C 0.390625 -0.816406 0.335938 -0.753906 0.296875 -0.671875 C 0.265625 -0.597656 0.25 -0.519531 0.25 -0.4375 C 0.25 -0.34375 0.273438 -0.269531 0.328125 -0.21875 C 0.390625 -0.164062 0.460938 -0.140625 0.546875 -0.140625 Z M 0.546875 -0.140625 "/></g></g><g style="fill:#ffffff;fill-opacity:1;"><g transform="translate(101.673016, 32.785787)"><path style="stroke:none" d="M 1.671875 -1.078125 L 1.140625 0 L 0.953125 0 L 0.859375 -0.859375 L 0.4375 0 L 0.265625 0 L 0.109375 -1.078125 L 0.296875 -1.078125 L 0.390625 -0.171875 L 0.8125 -1.078125 L 0.984375 -1.078125 L 1.09375 -0.171875 L 1.484375 -1.078125 Z M 1.671875 -1.078125 "/></g></g><g style="fill:#ffffff;fill-opacity:1;"><g transform="translate(103.273789, 32.785787)"><path style="stroke:none" d="M 0.703125 -1.09375 C 0.796875 -1.09375 0.875 -1.070312 0.9375 -1.03125 C 1 -1 1.046875 -0.953125 1.078125 -0.890625 C 1.117188 -0.828125 1.140625 -0.757812 1.140625 -0.6875 C 1.140625 -0.65625 1.132812 -0.617188 1.125 -0.578125 C 1.125 -0.546875 1.117188 -0.507812 1.109375 -0.46875 L 0.25 -0.46875 C 0.25 -0.445312 0.25 -0.429688 0.25 -0.421875 C 0.25 -0.328125 0.273438 -0.253906 0.328125 -0.203125 C 0.378906 -0.160156 0.453125 -0.140625 0.546875 -0.140625 C 0.617188 -0.140625 0.679688 -0.15625 0.734375 -0.1875 C 0.796875 -0.21875 0.84375 -0.265625 0.875 -0.328125 L 1.0625 -0.328125 C 1.019531 -0.222656 0.945312 -0.140625 0.84375 -0.078125 C 0.75 -0.015625 0.640625 0.015625 0.515625 0.015625 C 0.378906 0.015625 0.269531 -0.0195312 0.1875 -0.09375 C 0.101562 -0.175781 0.0625 -0.285156 0.0625 -0.421875 C 0.0625 -0.453125 0.0664062 -0.488281 0.078125 -0.53125 C 0.0976562 -0.644531 0.132812 -0.742188 0.1875 -0.828125 C 0.25 -0.910156 0.320312 -0.972656 0.40625 -1.015625 C 0.5 -1.066406 0.597656 -1.09375 0.703125 -1.09375 Z M 0.953125 -0.609375 C 0.953125 -0.628906 0.953125 -0.648438 0.953125 -0.671875 C 0.953125 -0.753906 0.925781 -0.816406 0.875 -0.859375 C 0.820312 -0.910156 0.753906 -0.9375 0.671875 -0.9375 C 0.578125 -0.9375 0.492188 -0.90625 0.421875 -0.84375 C 0.347656 -0.789062 0.300781 -0.710938 0.28125 -0.609375 Z M 0.953125 -0.609375 "/></g></g><g style="fill:#ffffff;fill-opacity:1;"><g transform="translate(104.484128, 32.785787)"><path style="stroke:none" d="M 0.390625 -0.875 C 0.429688 -0.9375 0.484375 -0.988281 0.546875 -1.03125 C 0.609375 -1.070312 0.679688 -1.09375 0.765625 -1.09375 L 0.734375 -0.90625 L 0.6875 -0.90625 C 0.59375 -0.90625 0.515625 -0.878906 0.453125 -0.828125 C 0.390625 -0.785156 0.347656 -0.703125 0.328125 -0.578125 L 0.234375 0 L 0.046875 0 L 0.234375 -1.078125 L 0.421875 -1.078125 Z M 0.390625 -0.875 "/></g></g><g style="fill:#ffffff;fill-opacity:1;"><g transform="translate(105.212284, 32.785787)"><path style="stroke:none" d="M 0.359375 -1.25 C 0.328125 -1.25 0.300781 -1.253906 0.28125 -1.265625 C 0.269531 -1.285156 0.265625 -1.3125 0.265625 -1.34375 C 0.265625 -1.382812 0.273438 -1.414062 0.296875 -1.4375 C 0.328125 -1.46875 0.363281 -1.484375 0.40625 -1.484375 C 0.4375 -1.484375 0.457031 -1.472656 0.46875 -1.453125 C 0.488281 -1.441406 0.5 -1.421875 0.5 -1.390625 C 0.5 -1.347656 0.484375 -1.3125 0.453125 -1.28125 C 0.429688 -1.257812 0.398438 -1.25 0.359375 -1.25 Z M 0.421875 -1.078125 L 0.234375 0 L 0.046875 0 L 0.234375 -1.078125 Z M 0.421875 -1.078125 "/></g></g><g style="fill:#ffffff;fill-opacity:1;"><g transform="translate(105.692516, 32.785787)"><path style="stroke:none" d="M 0.765625 -1.09375 C 0.878906 -1.09375 0.96875 -1.0625 1.03125 -1 C 1.09375 -0.9375 1.125 -0.851562 1.125 -0.75 C 1.125 -0.707031 1.125 -0.664062 1.125 -0.625 L 1.015625 0 L 0.828125 0 L 0.9375 -0.609375 C 0.945312 -0.628906 0.953125 -0.65625 0.953125 -0.6875 C 0.953125 -0.769531 0.925781 -0.832031 0.875 -0.875 C 0.832031 -0.914062 0.773438 -0.9375 0.703125 -0.9375 C 0.609375 -0.9375 0.523438 -0.90625 0.453125 -0.84375 C 0.390625 -0.789062 0.347656 -0.707031 0.328125 -0.59375 L 0.234375 0 L 0.046875 0 L 0.234375 -1.078125 L 0.421875 -1.078125 L 0.390625 -0.921875 C 0.429688 -0.972656 0.484375 -1.015625 0.546875 -1.046875 C 0.617188 -1.078125 0.691406 -1.09375 0.765625 -1.09375 Z M 0.765625 -1.09375 "/></g></g><g style="fill:#ffffff;fill-opacity:1;"><g transform="translate(106.941899, 32.785787)"><path style="stroke:none" d="M 0.6875 -1.09375 C 0.78125 -1.09375 0.859375 -1.070312 0.921875 -1.03125 C 0.984375 -0.988281 1.023438 -0.9375 1.046875 -0.875 L 1.078125 -1.078125 L 1.265625 -1.078125 L 1.0625 0.03125 C 1.050781 0.125 1.015625 0.207031 0.953125 0.28125 C 0.898438 0.363281 0.832031 0.425781 0.75 0.46875 C 0.664062 0.507812 0.570312 0.53125 0.46875 0.53125 C 0.320312 0.53125 0.207031 0.492188 0.125 0.421875 C 0.0507812 0.359375 0.015625 0.269531 0.015625 0.15625 L 0.1875 0.15625 C 0.195312 0.21875 0.226562 0.269531 0.28125 0.3125 C 0.332031 0.351562 0.40625 0.375 0.5 0.375 C 0.59375 0.375 0.675781 0.34375 0.75 0.28125 C 0.820312 0.21875 0.867188 0.132812 0.890625 0.03125 L 0.921875 -0.203125 C 0.878906 -0.140625 0.816406 -0.0859375 0.734375 -0.046875 C 0.660156 -0.00390625 0.578125 0.015625 0.484375 0.015625 C 0.398438 0.015625 0.328125 0 0.265625 -0.03125 C 0.203125 -0.0703125 0.148438 -0.125 0.109375 -0.1875 C 0.078125 -0.257812 0.0625 -0.335938 0.0625 -0.421875 C 0.0625 -0.460938 0.0664062 -0.503906 0.078125 -0.546875 C 0.0976562 -0.648438 0.132812 -0.742188 0.1875 -0.828125 C 0.25 -0.910156 0.320312 -0.972656 0.40625 -1.015625 C 0.5 -1.066406 0.59375 -1.09375 0.6875 -1.09375 Z M 0.984375 -0.53125 C 0.992188 -0.5625 1 -0.59375 1 -0.625 C 1 -0.71875 0.96875 -0.789062 0.90625 -0.84375 C 0.851562 -0.90625 0.78125 -0.9375 0.6875 -0.9375 C 0.625 -0.9375 0.5625 -0.921875 0.5 -0.890625 C 0.4375 -0.859375 0.382812 -0.8125 0.34375 -0.75 C 0.300781 -0.6875 0.273438 -0.617188 0.265625 -0.546875 C 0.253906 -0.515625 0.25 -0.484375 0.25 -0.453125 C 0.25 -0.359375 0.273438 -0.28125 0.328125 -0.21875 C 0.390625 -0.164062 0.460938 -0.140625 0.546875 -0.140625 C 0.617188 -0.140625 0.679688 -0.15625 0.734375 -0.1875 C 0.796875 -0.21875 0.847656 -0.265625 0.890625 -0.328125 C 0.941406 -0.390625 0.972656 -0.457031 0.984375 -0.53125 Z M 0.984375 -0.53125 "/></g></g><g style="fill:#ffffff;fill-opacity:1;"><g transform="translate(108.261561, 32.785787)"><path style="stroke:none" d=""/></g></g><g style="fill:#ffffff;fill-opacity:1;"><g transform="translate(108.843304, 32.785787)"><path style="stroke:none" d="M 0.46875 -1.359375 L 0.234375 0 L 0.046875 0 L 0.296875 -1.359375 Z M 0.46875 -1.359375 "/></g></g><g style="fill:#ffffff;fill-opacity:1;"><g transform="translate(109.323537, 32.785787)"><path style="stroke:none" d="M 1.53125 -1.09375 C 1.644531 -1.09375 1.734375 -1.0625 1.796875 -1 C 1.859375 -0.9375 1.890625 -0.851562 1.890625 -0.75 C 1.890625 -0.707031 1.890625 -0.664062 1.890625 -0.625 L 1.765625 0 L 1.59375 0 L 1.703125 -0.609375 C 1.710938 -0.628906 1.71875 -0.65625 1.71875 -0.6875 C 1.71875 -0.769531 1.691406 -0.832031 1.640625 -0.875 C 1.597656 -0.914062 1.539062 -0.9375 1.46875 -0.9375 C 1.382812 -0.9375 1.304688 -0.910156 1.234375 -0.859375 C 1.171875 -0.804688 1.128906 -0.726562 1.109375 -0.625 L 1 0 L 0.828125 0 L 0.9375 -0.609375 C 0.9375 -0.640625 0.9375 -0.671875 0.9375 -0.703125 C 0.9375 -0.773438 0.914062 -0.832031 0.875 -0.875 C 0.832031 -0.914062 0.773438 -0.9375 0.703125 -0.9375 C 0.609375 -0.9375 0.523438 -0.90625 0.453125 -0.84375 C 0.390625 -0.789062 0.347656 -0.707031 0.328125 -0.59375 L 0.234375 0 L 0.046875 0 L 0.234375 -1.078125 L 0.421875 -1.078125 L 0.390625 -0.921875 C 0.429688 -0.972656 0.484375 -1.015625 0.546875 -1.046875 C 0.617188 -1.078125 0.691406 -1.09375 0.765625 -1.09375 C 0.847656 -1.09375 0.921875 -1.070312 0.984375 -1.03125 C 1.046875 -0.988281 1.085938 -0.929688 1.109375 -0.859375 C 1.148438 -0.929688 1.207031 -0.988281 1.28125 -1.03125 C 1.363281 -1.070312 1.445312 -1.09375 1.53125 -1.09375 Z M 1.53125 -1.09375 "/></g></g><g style="fill:#ffffff;fill-opacity:1;"><g transform="translate(111.334264, 32.785787)"><path style="stroke:none" d="M 1.53125 -1.09375 C 1.644531 -1.09375 1.734375 -1.0625 1.796875 -1 C 1.859375 -0.9375 1.890625 -0.851562 1.890625 -0.75 C 1.890625 -0.707031 1.890625 -0.664062 1.890625 -0.625 L 1.765625 0 L 1.59375 0 L 1.703125 -0.609375 C 1.710938 -0.628906 1.71875 -0.65625 1.71875 -0.6875 C 1.71875 -0.769531 1.691406 -0.832031 1.640625 -0.875 C 1.597656 -0.914062 1.539062 -0.9375 1.46875 -0.9375 C 1.382812 -0.9375 1.304688 -0.910156 1.234375 -0.859375 C 1.171875 -0.804688 1.128906 -0.726562 1.109375 -0.625 L 1 0 L 0.828125 0 L 0.9375 -0.609375 C 0.9375 -0.640625 0.9375 -0.671875 0.9375 -0.703125 C 0.9375 -0.773438 0.914062 -0.832031 0.875 -0.875 C 0.832031 -0.914062 0.773438 -0.9375 0.703125 -0.9375 C 0.609375 -0.9375 0.523438 -0.90625 0.453125 -0.84375 C 0.390625 -0.789062 0.347656 -0.707031 0.328125 -0.59375 L 0.234375 0 L 0.046875 0 L 0.234375 -1.078125 L 0.421875 -1.078125 L 0.390625 -0.921875 C 0.429688 -0.972656 0.484375 -1.015625 0.546875 -1.046875 C 0.617188 -1.078125 0.691406 -1.09375 0.765625 -1.09375 C 0.847656 -1.09375 0.921875 -1.070312 0.984375 -1.03125 C 1.046875 -0.988281 1.085938 -0.929688 1.109375 -0.859375 C 1.148438 -0.929688 1.207031 -0.988281 1.28125 -1.03125 C 1.363281 -1.070312 1.445312 -1.09375 1.53125 -1.09375 Z M 1.53125 -1.09375 "/></g></g><g style="fill:#ffffff;fill-opacity:1;"><g transform="translate(113.344991, 32.785787)"><path style="stroke:none" d="M 0.359375 -1.25 C 0.328125 -1.25 0.300781 -1.253906 0.28125 -1.265625 C 0.269531 -1.285156 0.265625 -1.3125 0.265625 -1.34375 C 0.265625 -1.382812 0.273438 -1.414062 0.296875 -1.4375 C 0.328125 -1.46875 0.363281 -1.484375 0.40625 -1.484375 C 0.4375 -1.484375 0.457031 -1.472656 0.46875 -1.453125 C 0.488281 -1.441406 0.5 -1.421875 0.5 -1.390625 C 0.5 -1.347656 0.484375 -1.3125 0.453125 -1.28125 C 0.429688 -1.257812 0.398438 -1.25 0.359375 -1.25 Z M 0.421875 -1.078125 L 0.234375 0 L 0.046875 0 L 0.234375 -1.078125 Z M 0.421875 -1.078125 "/></g></g><g style="fill:#ffffff;fill-opacity:1;"><g transform="translate(113.825223, 32.785787)"><path style="stroke:none" d="M 0.6875 -1.09375 C 0.78125 -1.09375 0.859375 -1.070312 0.921875 -1.03125 C 0.984375 -0.988281 1.023438 -0.9375 1.046875 -0.875 L 1.078125 -1.078125 L 1.265625 -1.078125 L 1.0625 0.03125 C 1.050781 0.125 1.015625 0.207031 0.953125 0.28125 C 0.898438 0.363281 0.832031 0.425781 0.75 0.46875 C 0.664062 0.507812 0.570312 0.53125 0.46875 0.53125 C 0.320312 0.53125 0.207031 0.492188 0.125 0.421875 C 0.0507812 0.359375 0.015625 0.269531 0.015625 0.15625 L 0.1875 0.15625 C 0.195312 0.21875 0.226562 0.269531 0.28125 0.3125 C 0.332031 0.351562 0.40625 0.375 0.5 0.375 C 0.59375 0.375 0.675781 0.34375 0.75 0.28125 C 0.820312 0.21875 0.867188 0.132812 0.890625 0.03125 L 0.921875 -0.203125 C 0.878906 -0.140625 0.816406 -0.0859375 0.734375 -0.046875 C 0.660156 -0.00390625 0.578125 0.015625 0.484375 0.015625 C 0.398438 0.015625 0.328125 0 0.265625 -0.03125 C 0.203125 -0.0703125 0.148438 -0.125 0.109375 -0.1875 C 0.078125 -0.257812 0.0625 -0.335938 0.0625 -0.421875 C 0.0625 -0.460938 0.0664062 -0.503906 0.078125 -0.546875 C 0.0976562 -0.648438 0.132812 -0.742188 0.1875 -0.828125 C 0.25 -0.910156 0.320312 -0.972656 0.40625 -1.015625 C 0.5 -1.066406 0.59375 -1.09375 0.6875 -1.09375 Z M 0.984375 -0.53125 C 0.992188 -0.5625 1 -0.59375 1 -0.625 C 1 -0.71875 0.96875 -0.789062 0.90625 -0.84375 C 0.851562 -0.90625 0.78125 -0.9375 0.6875 -0.9375 C 0.625 -0.9375 0.5625 -0.921875 0.5 -0.890625 C 0.4375 -0.859375 0.382812 -0.8125 0.34375 -0.75 C 0.300781 -0.6875 0.273438 -0.617188 0.265625 -0.546875 C 0.253906 -0.515625 0.25 -0.484375 0.25 -0.453125 C 0.25 -0.359375 0.273438 -0.28125 0.328125 -0.21875 C 0.390625 -0.164062 0.460938 -0.140625 0.546875 -0.140625 C 0.617188 -0.140625 0.679688 -0.15625 0.734375 -0.1875 C 0.796875 -0.21875 0.847656 -0.265625 0.890625 -0.328125 C 0.941406 -0.390625 0.972656 -0.457031 0.984375 -0.53125 Z M 0.984375 -0.53125 "/></g></g><g style="fill:#ffffff;fill-opacity:1;"><g transform="translate(115.144885, 32.785787)"><path style="stroke:none" d="M 0.390625 -0.875 C 0.429688 -0.9375 0.484375 -0.988281 0.546875 -1.03125 C 0.609375 -1.070312 0.679688 -1.09375 0.765625 -1.09375 L 0.734375 -0.90625 L 0.6875 -0.90625 C 0.59375 -0.90625 0.515625 -0.878906 0.453125 -0.828125 C 0.390625 -0.785156 0.347656 -0.703125 0.328125 -0.578125 L 0.234375 0 L 0.046875 0 L 0.234375 -1.078125 L 0.421875 -1.078125 Z M 0.390625 -0.875 "/></g></g><g style="fill:#ffffff;fill-opacity:1;"><g transform="translate(115.873041, 32.785787)"><path style="stroke:none" d="M 0.078125 -0.546875 C 0.0976562 -0.648438 0.132812 -0.742188 0.1875 -0.828125 C 0.25 -0.910156 0.320312 -0.972656 0.40625 -1.015625 C 0.5 -1.066406 0.59375 -1.09375 0.6875 -1.09375 C 0.78125 -1.09375 0.859375 -1.070312 0.921875 -1.03125 C 0.984375 -0.988281 1.023438 -0.9375 1.046875 -0.875 L 1.078125 -1.078125 L 1.265625 -1.078125 L 1.078125 0 L 0.890625 0 L 0.921875 -0.203125 C 0.878906 -0.140625 0.816406 -0.0859375 0.734375 -0.046875 C 0.660156 -0.00390625 0.578125 0.015625 0.484375 0.015625 C 0.398438 0.015625 0.328125 0 0.265625 -0.03125 C 0.203125 -0.0703125 0.148438 -0.125 0.109375 -0.1875 C 0.078125 -0.257812 0.0625 -0.335938 0.0625 -0.421875 C 0.0625 -0.460938 0.0664062 -0.503906 0.078125 -0.546875 Z M 0.984375 -0.53125 C 0.992188 -0.5625 1 -0.59375 1 -0.625 C 1 -0.71875 0.96875 -0.789062 0.90625 -0.84375 C 0.851562 -0.90625 0.78125 -0.9375 0.6875 -0.9375 C 0.625 -0.9375 0.5625 -0.921875 0.5 -0.890625 C 0.4375 -0.859375 0.382812 -0.8125 0.34375 -0.75 C 0.300781 -0.6875 0.273438 -0.617188 0.265625 -0.546875 C 0.253906 -0.515625 0.25 -0.484375 0.25 -0.453125 C 0.25 -0.359375 0.273438 -0.28125 0.328125 -0.21875 C 0.390625 -0.164062 0.460938 -0.140625 0.546875 -0.140625 C 0.617188 -0.140625 0.679688 -0.15625 0.734375 -0.1875 C 0.796875 -0.21875 0.847656 -0.265625 0.890625 -0.328125 C 0.941406 -0.390625 0.972656 -0.457031 0.984375 -0.53125 Z M 0.984375 -0.53125 "/></g></g><g style="fill:#ffffff;fill-opacity:1;"><g transform="translate(117.192702, 32.785787)"><path style="stroke:none" d="M 0.765625 -1.09375 C 0.878906 -1.09375 0.96875 -1.0625 1.03125 -1 C 1.09375 -0.9375 1.125 -0.851562 1.125 -0.75 C 1.125 -0.707031 1.125 -0.664062 1.125 -0.625 L 1.015625 0 L 0.828125 0 L 0.9375 -0.609375 C 0.945312 -0.628906 0.953125 -0.65625 0.953125 -0.6875 C 0.953125 -0.769531 0.925781 -0.832031 0.875 -0.875 C 0.832031 -0.914062 0.773438 -0.9375 0.703125 -0.9375 C 0.609375 -0.9375 0.523438 -0.90625 0.453125 -0.84375 C 0.390625 -0.789062 0.347656 -0.707031 0.328125 -0.59375 L 0.234375 0 L 0.046875 0 L 0.234375 -1.078125 L 0.421875 -1.078125 L 0.390625 -0.921875 C 0.429688 -0.972656 0.484375 -1.015625 0.546875 -1.046875 C 0.617188 -1.078125 0.691406 -1.09375 0.765625 -1.09375 Z M 0.765625 -1.09375 "/></g></g><g style="fill:#ffffff;fill-opacity:1;"><g transform="translate(118.442085, 32.785787)"><path style="stroke:none" d="M 0.328125 -0.296875 C 0.316406 -0.273438 0.3125 -0.257812 0.3125 -0.25 C 0.3125 -0.207031 0.320312 -0.179688 0.34375 -0.171875 C 0.363281 -0.160156 0.394531 -0.15625 0.4375 -0.15625 L 0.578125 -0.15625 L 0.546875 0 L 0.390625 0 C 0.304688 0 0.242188 -0.015625 0.203125 -0.046875 C 0.160156 -0.078125 0.140625 -0.128906 0.140625 -0.203125 C 0.140625 -0.234375 0.140625 -0.265625 0.140625 -0.296875 L 0.25 -0.921875 L 0.109375 -0.921875 L 0.140625 -1.078125 L 0.28125 -1.078125 L 0.328125 -1.34375 L 0.5 -1.34375 L 0.453125 -1.078125 L 0.734375 -1.078125 L 0.71875 -0.921875 L 0.4375 -0.921875 Z M 0.328125 -0.296875 "/></g></g><g style="fill:#ffffff;fill-opacity:1;"><g transform="translate(119.152671, 32.785787)"><path style="stroke:none" d=""/></g></g><g style="fill:#ffffff;fill-opacity:1;"><g transform="translate(119.734414, 32.785787)"><path style="stroke:none" d="M 1.0625 -1.359375 L 1.03125 -1.21875 L 0.453125 -1.21875 L 0.359375 -0.75 L 0.84375 -0.75 L 0.8125 -0.625 L 0.34375 -0.625 L 0.234375 0 L 0.046875 0 L 0.296875 -1.359375 Z M 1.0625 -1.359375 "/></g></g><g style="fill:#ffffff;fill-opacity:1;"><g transform="translate(120.718305, 32.785787)"><path style="stroke:none" d="M 0.078125 -0.546875 C 0.0976562 -0.648438 0.132812 -0.742188 0.1875 -0.828125 C 0.25 -0.910156 0.320312 -0.972656 0.40625 -1.015625 C 0.5 -1.066406 0.59375 -1.09375 0.6875 -1.09375 C 0.78125 -1.09375 0.859375 -1.070312 0.921875 -1.03125 C 0.984375 -0.988281 1.023438 -0.9375 1.046875 -0.875 L 1.078125 -1.078125 L 1.265625 -1.078125 L 1.078125 0 L 0.890625 0 L 0.921875 -0.203125 C 0.878906 -0.140625 0.816406 -0.0859375 0.734375 -0.046875 C 0.660156 -0.00390625 0.578125 0.015625 0.484375 0.015625 C 0.398438 0.015625 0.328125 0 0.265625 -0.03125 C 0.203125 -0.0703125 0.148438 -0.125 0.109375 -0.1875 C 0.078125 -0.257812 0.0625 -0.335938 0.0625 -0.421875 C 0.0625 -0.460938 0.0664062 -0.503906 0.078125 -0.546875 Z M 0.984375 -0.53125 C 0.992188 -0.5625 1 -0.59375 1 -0.625 C 1 -0.71875 0.96875 -0.789062 0.90625 -0.84375 C 0.851562 -0.90625 0.78125 -0.9375 0.6875 -0.9375 C 0.625 -0.9375 0.5625 -0.921875 0.5 -0.890625 C 0.4375 -0.859375 0.382812 -0.8125 0.34375 -0.75 C 0.300781 -0.6875 0.273438 -0.617188 0.265625 -0.546875 C 0.253906 -0.515625 0.25 -0.484375 0.25 -0.453125 C 0.25 -0.359375 0.273438 -0.28125 0.328125 -0.21875 C 0.390625 -0.164062 0.460938 -0.140625 0.546875 -0.140625 C 0.617188 -0.140625 0.679688 -0.15625 0.734375 -0.1875 C 0.796875 -0.21875 0.847656 -0.265625 0.890625 -0.328125 C 0.941406 -0.390625 0.972656 -0.457031 0.984375 -0.53125 Z M 0.984375 -0.53125 "/></g></g><g style="fill:#ffffff;fill-opacity:1;"><g transform="translate(122.037967, 32.785787)"><path style="stroke:none" d="M 1.53125 -1.09375 C 1.644531 -1.09375 1.734375 -1.0625 1.796875 -1 C 1.859375 -0.9375 1.890625 -0.851562 1.890625 -0.75 C 1.890625 -0.707031 1.890625 -0.664062 1.890625 -0.625 L 1.765625 0 L 1.59375 0 L 1.703125 -0.609375 C 1.710938 -0.628906 1.71875 -0.65625 1.71875 -0.6875 C 1.71875 -0.769531 1.691406 -0.832031 1.640625 -0.875 C 1.597656 -0.914062 1.539062 -0.9375 1.46875 -0.9375 C 1.382812 -0.9375 1.304688 -0.910156 1.234375 -0.859375 C 1.171875 -0.804688 1.128906 -0.726562 1.109375 -0.625 L 1 0 L 0.828125 0 L 0.9375 -0.609375 C 0.9375 -0.640625 0.9375 -0.671875 0.9375 -0.703125 C 0.9375 -0.773438 0.914062 -0.832031 0.875 -0.875 C 0.832031 -0.914062 0.773438 -0.9375 0.703125 -0.9375 C 0.609375 -0.9375 0.523438 -0.90625 0.453125 -0.84375 C 0.390625 -0.789062 0.347656 -0.707031 0.328125 -0.59375 L 0.234375 0 L 0.046875 0 L 0.234375 -1.078125 L 0.421875 -1.078125 L 0.390625 -0.921875 C 0.429688 -0.972656 0.484375 -1.015625 0.546875 -1.046875 C 0.617188 -1.078125 0.691406 -1.09375 0.765625 -1.09375 C 0.847656 -1.09375 0.921875 -1.070312 0.984375 -1.03125 C 1.046875 -0.988281 1.085938 -0.929688 1.109375 -0.859375 C 1.148438 -0.929688 1.207031 -0.988281 1.28125 -1.03125 C 1.363281 -1.070312 1.445312 -1.09375 1.53125 -1.09375 Z M 1.53125 -1.09375 "/></g></g><g style="fill:#ffffff;fill-opacity:1;"><g transform="translate(124.048694, 32.785787)"><path style="stroke:none" d="M 0.359375 -1.25 C 0.328125 -1.25 0.300781 -1.253906 0.28125 -1.265625 C 0.269531 -1.285156 0.265625 -1.3125 0.265625 -1.34375 C 0.265625 -1.382812 0.273438 -1.414062 0.296875 -1.4375 C 0.328125 -1.46875 0.363281 -1.484375 0.40625 -1.484375 C 0.4375 -1.484375 0.457031 -1.472656 0.46875 -1.453125 C 0.488281 -1.441406 0.5 -1.421875 0.5 -1.390625 C 0.5 -1.347656 0.484375 -1.3125 0.453125 -1.28125 C 0.429688 -1.257812 0.398438 -1.25 0.359375 -1.25 Z M 0.421875 -1.078125 L 0.234375 0 L 0.046875 0 L 0.234375 -1.078125 Z M 0.421875 -1.078125 "/></g></g><g style="fill:#ffffff;fill-opacity:1;"><g transform="translate(124.528926, 32.785787)"><path style="stroke:none" d="M 0.484375 -1.453125 L 0.234375 0 L 0.046875 0 L 0.3125 -1.453125 Z M 0.484375 -1.453125 "/></g></g><g style="fill:#ffffff;fill-opacity:1;"><g transform="translate(125.009159, 32.785787)"><path style="stroke:none" d="M 0.359375 -1.25 C 0.328125 -1.25 0.300781 -1.253906 0.28125 -1.265625 C 0.269531 -1.285156 0.265625 -1.3125 0.265625 -1.34375 C 0.265625 -1.382812 0.273438 -1.414062 0.296875 -1.4375 C 0.328125 -1.46875 0.363281 -1.484375 0.40625 -1.484375 C 0.4375 -1.484375 0.457031 -1.472656 0.46875 -1.453125 C 0.488281 -1.441406 0.5 -1.421875 0.5 -1.390625 C 0.5 -1.347656 0.484375 -1.3125 0.453125 -1.28125 C 0.429688 -1.257812 0.398438 -1.25 0.359375 -1.25 Z M 0.421875 -1.078125 L 0.234375 0 L 0.046875 0 L 0.234375 -1.078125 Z M 0.421875 -1.078125 "/></g></g><g style="fill:#ffffff;fill-opacity:1;"><g transform="translate(125.489391, 32.785787)"><path style="stroke:none" d="M 0.703125 -1.09375 C 0.796875 -1.09375 0.875 -1.070312 0.9375 -1.03125 C 1 -1 1.046875 -0.953125 1.078125 -0.890625 C 1.117188 -0.828125 1.140625 -0.757812 1.140625 -0.6875 C 1.140625 -0.65625 1.132812 -0.617188 1.125 -0.578125 C 1.125 -0.546875 1.117188 -0.507812 1.109375 -0.46875 L 0.25 -0.46875 C 0.25 -0.445312 0.25 -0.429688 0.25 -0.421875 C 0.25 -0.328125 0.273438 -0.253906 0.328125 -0.203125 C 0.378906 -0.160156 0.453125 -0.140625 0.546875 -0.140625 C 0.617188 -0.140625 0.679688 -0.15625 0.734375 -0.1875 C 0.796875 -0.21875 0.84375 -0.265625 0.875 -0.328125 L 1.0625 -0.328125 C 1.019531 -0.222656 0.945312 -0.140625 0.84375 -0.078125 C 0.75 -0.015625 0.640625 0.015625 0.515625 0.015625 C 0.378906 0.015625 0.269531 -0.0195312 0.1875 -0.09375 C 0.101562 -0.175781 0.0625 -0.285156 0.0625 -0.421875 C 0.0625 -0.453125 0.0664062 -0.488281 0.078125 -0.53125 C 0.0976562 -0.644531 0.132812 -0.742188 0.1875 -0.828125 C 0.25 -0.910156 0.320312 -0.972656 0.40625 -1.015625 C 0.5 -1.066406 0.597656 -1.09375 0.703125 -1.09375 Z M 0.953125 -0.609375 C 0.953125 -0.628906 0.953125 -0.648438 0.953125 -0.671875 C 0.953125 -0.753906 0.925781 -0.816406 0.875 -0.859375 C 0.820312 -0.910156 0.753906 -0.9375 0.671875 -0.9375 C 0.578125 -0.9375 0.492188 -0.90625 0.421875 -0.84375 C 0.347656 -0.789062 0.300781 -0.710938 0.28125 -0.609375 Z M 0.953125 -0.609375 "/></g></g><g style="fill:#ffffff;fill-opacity:1;"><g transform="translate(126.699731, 32.785787)"><path style="stroke:none" d="M 0.421875 0.015625 C 0.316406 0.015625 0.226562 -0.0078125 0.15625 -0.0625 C 0.0820312 -0.113281 0.046875 -0.1875 0.046875 -0.28125 C 0.046875 -0.289062 0.046875 -0.300781 0.046875 -0.3125 L 0.21875 -0.3125 C 0.21875 -0.257812 0.234375 -0.210938 0.265625 -0.171875 C 0.304688 -0.140625 0.363281 -0.125 0.4375 -0.125 C 0.507812 -0.125 0.566406 -0.132812 0.609375 -0.15625 C 0.660156 -0.1875 0.6875 -0.226562 0.6875 -0.28125 C 0.6875 -0.320312 0.664062 -0.351562 0.625 -0.375 C 0.59375 -0.40625 0.535156 -0.4375 0.453125 -0.46875 C 0.390625 -0.488281 0.335938 -0.507812 0.296875 -0.53125 C 0.253906 -0.5625 0.21875 -0.59375 0.1875 -0.625 C 0.15625 -0.664062 0.140625 -0.71875 0.140625 -0.78125 C 0.140625 -0.84375 0.15625 -0.894531 0.1875 -0.9375 C 0.226562 -0.988281 0.28125 -1.023438 0.34375 -1.046875 C 0.40625 -1.078125 0.472656 -1.09375 0.546875 -1.09375 C 0.660156 -1.09375 0.75 -1.0625 0.8125 -1 C 0.882812 -0.945312 0.921875 -0.878906 0.921875 -0.796875 C 0.921875 -0.773438 0.921875 -0.757812 0.921875 -0.75 L 0.75 -0.75 L 0.75 -0.78125 C 0.75 -0.832031 0.726562 -0.875 0.6875 -0.90625 C 0.65625 -0.9375 0.601562 -0.953125 0.53125 -0.953125 C 0.46875 -0.953125 0.414062 -0.9375 0.375 -0.90625 C 0.332031 -0.875 0.3125 -0.832031 0.3125 -0.78125 C 0.3125 -0.738281 0.332031 -0.703125 0.375 -0.671875 C 0.414062 -0.648438 0.472656 -0.625 0.546875 -0.59375 C 0.617188 -0.570312 0.671875 -0.546875 0.703125 -0.515625 C 0.742188 -0.492188 0.78125 -0.460938 0.8125 -0.421875 C 0.84375 -0.390625 0.859375 -0.347656 0.859375 -0.296875 C 0.859375 -0.234375 0.835938 -0.175781 0.796875 -0.125 C 0.765625 -0.0820312 0.710938 -0.046875 0.640625 -0.015625 C 0.578125 0.00390625 0.503906 0.015625 0.421875 0.015625 Z M 0.421875 0.015625 "/></g></g><g style="fill:#ffffff;fill-opacity:1;"><g transform="translate(127.718758, 32.785787)"><path style="stroke:none" d="M 0.28125 -0.25 L -0.03125 0.28125 L -0.15625 0.28125 L 0.078125 -0.25 Z M 0.28125 -0.25 "/></g></g><g style="fill:#ffffff;fill-opacity:1;"><g transform="translate(128.105287, 32.785787)"><path style="stroke:none" d=""/></g></g><g style="fill:#ffffff;fill-opacity:1;"><g transform="translate(128.68703, 32.785787)"><path style="stroke:none" d="M 1.15625 -1.015625 C 1.132812 -0.929688 1.097656 -0.863281 1.046875 -0.8125 C 0.992188 -0.757812 0.929688 -0.722656 0.859375 -0.703125 C 0.921875 -0.691406 0.972656 -0.660156 1.015625 -0.609375 C 1.054688 -0.554688 1.078125 -0.492188 1.078125 -0.421875 C 1.078125 -0.398438 1.070312 -0.378906 1.0625 -0.359375 C 1.050781 -0.296875 1.023438 -0.234375 0.984375 -0.171875 C 0.941406 -0.117188 0.882812 -0.078125 0.8125 -0.046875 C 0.738281 -0.015625 0.65625 0 0.5625 0 L 0.046875 0 L 0.296875 -1.359375 L 0.78125 -1.359375 C 0.90625 -1.359375 1 -1.332031 1.0625 -1.28125 C 1.125 -1.226562 1.15625 -1.160156 1.15625 -1.078125 C 1.15625 -1.054688 1.15625 -1.035156 1.15625 -1.015625 Z M 0.96875 -1 C 0.96875 -1.007812 0.96875 -1.023438 0.96875 -1.046875 C 0.96875 -1.097656 0.945312 -1.140625 0.90625 -1.171875 C 0.875 -1.203125 0.816406 -1.21875 0.734375 -1.21875 L 0.453125 -1.21875 L 0.359375 -0.765625 L 0.671875 -0.765625 C 0.742188 -0.765625 0.804688 -0.785156 0.859375 -0.828125 C 0.921875 -0.867188 0.957031 -0.925781 0.96875 -1 Z M 0.890625 -0.390625 C 0.890625 -0.398438 0.890625 -0.414062 0.890625 -0.4375 C 0.890625 -0.5 0.867188 -0.546875 0.828125 -0.578125 C 0.785156 -0.609375 0.726562 -0.625 0.65625 -0.625 L 0.34375 -0.625 L 0.25 -0.140625 L 0.5625 -0.140625 C 0.65625 -0.140625 0.726562 -0.160156 0.78125 -0.203125 C 0.84375 -0.242188 0.878906 -0.304688 0.890625 -0.390625 Z M 0.890625 -0.390625 "/></g></g><g style="fill:#ffffff;fill-opacity:1;"><g transform="translate(129.883704, 32.785787)"><path style="stroke:none" d="M 0.390625 -0.875 C 0.429688 -0.9375 0.484375 -0.988281 0.546875 -1.03125 C 0.609375 -1.070312 0.679688 -1.09375 0.765625 -1.09375 L 0.734375 -0.90625 L 0.6875 -0.90625 C 0.59375 -0.90625 0.515625 -0.878906 0.453125 -0.828125 C 0.390625 -0.785156 0.347656 -0.703125 0.328125 -0.578125 L 0.234375 0 L 0.046875 0 L 0.234375 -1.078125 L 0.421875 -1.078125 Z M 0.390625 -0.875 "/></g></g><g style="fill:#ffffff;fill-opacity:1;"><g transform="translate(130.61186, 32.785787)"><path style="stroke:none" d="M 0.359375 -1.25 C 0.328125 -1.25 0.300781 -1.253906 0.28125 -1.265625 C 0.269531 -1.285156 0.265625 -1.3125 0.265625 -1.34375 C 0.265625 -1.382812 0.273438 -1.414062 0.296875 -1.4375 C 0.328125 -1.46875 0.363281 -1.484375 0.40625 -1.484375 C 0.4375 -1.484375 0.457031 -1.472656 0.46875 -1.453125 C 0.488281 -1.441406 0.5 -1.421875 0.5 -1.390625 C 0.5 -1.347656 0.484375 -1.3125 0.453125 -1.28125 C 0.429688 -1.257812 0.398438 -1.25 0.359375 -1.25 Z M 0.421875 -1.078125 L 0.234375 0 L 0.046875 0 L 0.234375 -1.078125 Z M 0.421875 -1.078125 "/></g></g><g style="fill:#ffffff;fill-opacity:1;"><g transform="translate(131.092092, 32.785787)"><path style="stroke:none" d="M 0.078125 -0.546875 C 0.0976562 -0.648438 0.132812 -0.742188 0.1875 -0.828125 C 0.25 -0.910156 0.320312 -0.972656 0.40625 -1.015625 C 0.5 -1.066406 0.59375 -1.09375 0.6875 -1.09375 C 0.769531 -1.09375 0.84375 -1.070312 0.90625 -1.03125 C 0.96875 -0.988281 1.015625 -0.9375 1.046875 -0.875 L 1.140625 -1.453125 L 1.328125 -1.453125 L 1.078125 0 L 0.890625 0 L 0.921875 -0.203125 C 0.878906 -0.140625 0.816406 -0.0859375 0.734375 -0.046875 C 0.660156 -0.00390625 0.578125 0.015625 0.484375 0.015625 C 0.398438 0.015625 0.328125 0 0.265625 -0.03125 C 0.203125 -0.0703125 0.148438 -0.125 0.109375 -0.1875 C 0.078125 -0.257812 0.0625 -0.335938 0.0625 -0.421875 C 0.0625 -0.460938 0.0664062 -0.503906 0.078125 -0.546875 Z M 0.984375 -0.53125 C 0.992188 -0.5625 1 -0.59375 1 -0.625 C 1 -0.71875 0.96875 -0.789062 0.90625 -0.84375 C 0.851562 -0.90625 0.78125 -0.9375 0.6875 -0.9375 C 0.625 -0.9375 0.5625 -0.921875 0.5 -0.890625 C 0.4375 -0.859375 0.382812 -0.8125 0.34375 -0.75 C 0.300781 -0.6875 0.273438 -0.617188 0.265625 -0.546875 C 0.253906 -0.515625 0.25 -0.484375 0.25 -0.453125 C 0.25 -0.359375 0.273438 -0.28125 0.328125 -0.21875 C 0.390625 -0.164062 0.460938 -0.140625 0.546875 -0.140625 C 0.617188 -0.140625 0.679688 -0.15625 0.734375 -0.1875 C 0.796875 -0.21875 0.847656 -0.265625 0.890625 -0.328125 C 0.941406 -0.390625 0.972656 -0.457031 0.984375 -0.53125 Z M 0.984375 -0.53125 "/></g></g><g style="fill:#ffffff;fill-opacity:1;"><g transform="translate(132.411754, 32.785787)"><path style="stroke:none" d="M 0.6875 -1.09375 C 0.78125 -1.09375 0.859375 -1.070312 0.921875 -1.03125 C 0.984375 -0.988281 1.023438 -0.9375 1.046875 -0.875 L 1.078125 -1.078125 L 1.265625 -1.078125 L 1.0625 0.03125 C 1.050781 0.125 1.015625 0.207031 0.953125 0.28125 C 0.898438 0.363281 0.832031 0.425781 0.75 0.46875 C 0.664062 0.507812 0.570312 0.53125 0.46875 0.53125 C 0.320312 0.53125 0.207031 0.492188 0.125 0.421875 C 0.0507812 0.359375 0.015625 0.269531 0.015625 0.15625 L 0.1875 0.15625 C 0.195312 0.21875 0.226562 0.269531 0.28125 0.3125 C 0.332031 0.351562 0.40625 0.375 0.5 0.375 C 0.59375 0.375 0.675781 0.34375 0.75 0.28125 C 0.820312 0.21875 0.867188 0.132812 0.890625 0.03125 L 0.921875 -0.203125 C 0.878906 -0.140625 0.816406 -0.0859375 0.734375 -0.046875 C 0.660156 -0.00390625 0.578125 0.015625 0.484375 0.015625 C 0.398438 0.015625 0.328125 0 0.265625 -0.03125 C 0.203125 -0.0703125 0.148438 -0.125 0.109375 -0.1875 C 0.078125 -0.257812 0.0625 -0.335938 0.0625 -0.421875 C 0.0625 -0.460938 0.0664062 -0.503906 0.078125 -0.546875 C 0.0976562 -0.648438 0.132812 -0.742188 0.1875 -0.828125 C 0.25 -0.910156 0.320312 -0.972656 0.40625 -1.015625 C 0.5 -1.066406 0.59375 -1.09375 0.6875 -1.09375 Z M 0.984375 -0.53125 C 0.992188 -0.5625 1 -0.59375 1 -0.625 C 1 -0.71875 0.96875 -0.789062 0.90625 -0.84375 C 0.851562 -0.90625 0.78125 -0.9375 0.6875 -0.9375 C 0.625 -0.9375 0.5625 -0.921875 0.5 -0.890625 C 0.4375 -0.859375 0.382812 -0.8125 0.34375 -0.75 C 0.300781 -0.6875 0.273438 -0.617188 0.265625 -0.546875 C 0.253906 -0.515625 0.25 -0.484375 0.25 -0.453125 C 0.25 -0.359375 0.273438 -0.28125 0.328125 -0.21875 C 0.390625 -0.164062 0.460938 -0.140625 0.546875 -0.140625 C 0.617188 -0.140625 0.679688 -0.15625 0.734375 -0.1875 C 0.796875 -0.21875 0.847656 -0.265625 0.890625 -0.328125 C 0.941406 -0.390625 0.972656 -0.457031 0.984375 -0.53125 Z M 0.984375 -0.53125 "/></g></g><g style="fill:#ffffff;fill-opacity:1;"><g transform="translate(133.731416, 32.785787)"><path style="stroke:none" d="M 0.359375 -1.25 C 0.328125 -1.25 0.300781 -1.253906 0.28125 -1.265625 C 0.269531 -1.285156 0.265625 -1.3125 0.265625 -1.34375 C 0.265625 -1.382812 0.273438 -1.414062 0.296875 -1.4375 C 0.328125 -1.46875 0.363281 -1.484375 0.40625 -1.484375 C 0.4375 -1.484375 0.457031 -1.472656 0.46875 -1.453125 C 0.488281 -1.441406 0.5 -1.421875 0.5 -1.390625 C 0.5 -1.347656 0.484375 -1.3125 0.453125 -1.28125 C 0.429688 -1.257812 0.398438 -1.25 0.359375 -1.25 Z M 0.421875 -1.078125 L 0.234375 0 L 0.046875 0 L 0.234375 -1.078125 Z M 0.421875 -1.078125 "/></g></g><g style="fill:#ffffff;fill-opacity:1;"><g transform="translate(134.211648, 32.785787)"><path style="stroke:none" d="M 0.765625 -1.09375 C 0.878906 -1.09375 0.96875 -1.0625 1.03125 -1 C 1.09375 -0.9375 1.125 -0.851562 1.125 -0.75 C 1.125 -0.707031 1.125 -0.664062 1.125 -0.625 L 1.015625 0 L 0.828125 0 L 0.9375 -0.609375 C 0.945312 -0.628906 0.953125 -0.65625 0.953125 -0.6875 C 0.953125 -0.769531 0.925781 -0.832031 0.875 -0.875 C 0.832031 -0.914062 0.773438 -0.9375 0.703125 -0.9375 C 0.609375 -0.9375 0.523438 -0.90625 0.453125 -0.84375 C 0.390625 -0.789062 0.347656 -0.707031 0.328125 -0.59375 L 0.234375 0 L 0.046875 0 L 0.234375 -1.078125 L 0.421875 -1.078125 L 0.390625 -0.921875 C 0.429688 -0.972656 0.484375 -1.015625 0.546875 -1.046875 C 0.617188 -1.078125 0.691406 -1.09375 0.765625 -1.09375 Z M 0.765625 -1.09375 "/></g></g><g style="fill:#ffffff;fill-opacity:1;"><g transform="translate(135.461031, 32.785787)"><path style="stroke:none" d="M 0.6875 -1.09375 C 0.78125 -1.09375 0.859375 -1.070312 0.921875 -1.03125 C 0.984375 -0.988281 1.023438 -0.9375 1.046875 -0.875 L 1.078125 -1.078125 L 1.265625 -1.078125 L 1.0625 0.03125 C 1.050781 0.125 1.015625 0.207031 0.953125 0.28125 C 0.898438 0.363281 0.832031 0.425781 0.75 0.46875 C 0.664062 0.507812 0.570312 0.53125 0.46875 0.53125 C 0.320312 0.53125 0.207031 0.492188 0.125 0.421875 C 0.0507812 0.359375 0.015625 0.269531 0.015625 0.15625 L 0.1875 0.15625 C 0.195312 0.21875 0.226562 0.269531 0.28125 0.3125 C 0.332031 0.351562 0.40625 0.375 0.5 0.375 C 0.59375 0.375 0.675781 0.34375 0.75 0.28125 C 0.820312 0.21875 0.867188 0.132812 0.890625 0.03125 L 0.921875 -0.203125 C 0.878906 -0.140625 0.816406 -0.0859375 0.734375 -0.046875 C 0.660156 -0.00390625 0.578125 0.015625 0.484375 0.015625 C 0.398438 0.015625 0.328125 0 0.265625 -0.03125 C 0.203125 -0.0703125 0.148438 -0.125 0.109375 -0.1875 C 0.078125 -0.257812 0.0625 -0.335938 0.0625 -0.421875 C 0.0625 -0.460938 0.0664062 -0.503906 0.078125 -0.546875 C 0.0976562 -0.648438 0.132812 -0.742188 0.1875 -0.828125 C 0.25 -0.910156 0.320312 -0.972656 0.40625 -1.015625 C 0.5 -1.066406 0.59375 -1.09375 0.6875 -1.09375 Z M 0.984375 -0.53125 C 0.992188 -0.5625 1 -0.59375 1 -0.625 C 1 -0.71875 0.96875 -0.789062 0.90625 -0.84375 C 0.851562 -0.90625 0.78125 -0.9375 0.6875 -0.9375 C 0.625 -0.9375 0.5625 -0.921875 0.5 -0.890625 C 0.4375 -0.859375 0.382812 -0.8125 0.34375 -0.75 C 0.300781 -0.6875 0.273438 -0.617188 0.265625 -0.546875 C 0.253906 -0.515625 0.25 -0.484375 0.25 -0.453125 C 0.25 -0.359375 0.273438 -0.28125 0.328125 -0.21875 C 0.390625 -0.164062 0.460938 -0.140625 0.546875 -0.140625 C 0.617188 -0.140625 0.679688 -0.15625 0.734375 -0.1875 C 0.796875 -0.21875 0.847656 -0.265625 0.890625 -0.328125 C 0.941406 -0.390625 0.972656 -0.457031 0.984375 -0.53125 Z M 0.984375 -0.53125 "/></g></g><g style="fill:#ffffff;fill-opacity:1;"><g transform="translate(136.780693, 32.785787)"><path style="stroke:none" d=""/></g></g><g style="fill:#ffffff;fill-opacity:1;"><g transform="translate(137.362436, 32.785787)"><path style="stroke:none" d="M 0.109375 -0.6875 C 0.128906 -0.8125 0.175781 -0.925781 0.25 -1.03125 C 0.332031 -1.144531 0.429688 -1.226562 0.546875 -1.28125 C 0.660156 -1.34375 0.78125 -1.375 0.90625 -1.375 C 1.050781 -1.375 1.171875 -1.335938 1.265625 -1.265625 C 1.367188 -1.203125 1.4375 -1.101562 1.46875 -0.96875 L 1.25 -0.96875 C 1.226562 -1.050781 1.1875 -1.113281 1.125 -1.15625 C 1.0625 -1.195312 0.976562 -1.21875 0.875 -1.21875 C 0.78125 -1.21875 0.691406 -1.195312 0.609375 -1.15625 C 0.523438 -1.113281 0.453125 -1.050781 0.390625 -0.96875 C 0.335938 -0.882812 0.300781 -0.789062 0.28125 -0.6875 C 0.28125 -0.644531 0.28125 -0.601562 0.28125 -0.5625 C 0.28125 -0.4375 0.316406 -0.335938 0.390625 -0.265625 C 0.460938 -0.191406 0.5625 -0.15625 0.6875 -0.15625 C 0.789062 -0.15625 0.878906 -0.175781 0.953125 -0.21875 C 1.035156 -0.257812 1.101562 -0.316406 1.15625 -0.390625 L 1.359375 -0.390625 C 1.285156 -0.265625 1.1875 -0.164062 1.0625 -0.09375 C 0.945312 -0.0195312 0.8125 0.015625 0.65625 0.015625 C 0.550781 0.015625 0.453125 -0.00390625 0.359375 -0.046875 C 0.273438 -0.0976562 0.207031 -0.164062 0.15625 -0.25 C 0.113281 -0.332031 0.09375 -0.429688 0.09375 -0.546875 C 0.09375 -0.585938 0.0976562 -0.632812 0.109375 -0.6875 Z M 0.109375 -0.6875 "/></g></g><g style="fill:#ffffff;fill-opacity:1;"><g transform="translate(138.869503, 32.785787)"><path style="stroke:none" d="M 1.1875 -1.078125 L 1 0 L 0.828125 0 L 0.84375 -0.15625 C 0.800781 -0.101562 0.75 -0.0625 0.6875 -0.03125 C 0.625 0 0.554688 0.015625 0.484375 0.015625 C 0.367188 0.015625 0.273438 -0.015625 0.203125 -0.078125 C 0.140625 -0.140625 0.109375 -0.226562 0.109375 -0.34375 C 0.109375 -0.363281 0.113281 -0.394531 0.125 -0.4375 L 0.234375 -1.078125 L 0.40625 -1.078125 L 0.296875 -0.46875 C 0.296875 -0.4375 0.296875 -0.40625 0.296875 -0.375 C 0.296875 -0.300781 0.316406 -0.242188 0.359375 -0.203125 C 0.398438 -0.160156 0.460938 -0.140625 0.546875 -0.140625 C 0.640625 -0.140625 0.71875 -0.164062 0.78125 -0.21875 C 0.84375 -0.28125 0.882812 -0.367188 0.90625 -0.484375 L 1.015625 -1.078125 Z M 1.1875 -1.078125 "/></g></g><g style="fill:#ffffff;fill-opacity:1;"><g transform="translate(140.118886, 32.785787)"><path style="stroke:none" d="M 0.484375 -1.453125 L 0.234375 0 L 0.046875 0 L 0.3125 -1.453125 Z M 0.484375 -1.453125 "/></g></g><g style="fill:#ffffff;fill-opacity:1;"><g transform="translate(140.599118, 32.785787)"><path style="stroke:none" d="M 0.328125 -0.296875 C 0.316406 -0.273438 0.3125 -0.257812 0.3125 -0.25 C 0.3125 -0.207031 0.320312 -0.179688 0.34375 -0.171875 C 0.363281 -0.160156 0.394531 -0.15625 0.4375 -0.15625 L 0.578125 -0.15625 L 0.546875 0 L 0.390625 0 C 0.304688 0 0.242188 -0.015625 0.203125 -0.046875 C 0.160156 -0.078125 0.140625 -0.128906 0.140625 -0.203125 C 0.140625 -0.234375 0.140625 -0.265625 0.140625 -0.296875 L 0.25 -0.921875 L 0.109375 -0.921875 L 0.140625 -1.078125 L 0.28125 -1.078125 L 0.328125 -1.34375 L 0.5 -1.34375 L 0.453125 -1.078125 L 0.734375 -1.078125 L 0.71875 -0.921875 L 0.4375 -0.921875 Z M 0.328125 -0.296875 "/></g></g><g style="fill:#ffffff;fill-opacity:1;"><g transform="translate(141.309707, 32.785787)"><path style="stroke:none" d="M 1.1875 -1.078125 L 1 0 L 0.828125 0 L 0.84375 -0.15625 C 0.800781 -0.101562 0.75 -0.0625 0.6875 -0.03125 C 0.625 0 0.554688 0.015625 0.484375 0.015625 C 0.367188 0.015625 0.273438 -0.015625 0.203125 -0.078125 C 0.140625 -0.140625 0.109375 -0.226562 0.109375 -0.34375 C 0.109375 -0.363281 0.113281 -0.394531 0.125 -0.4375 L 0.234375 -1.078125 L 0.40625 -1.078125 L 0.296875 -0.46875 C 0.296875 -0.4375 0.296875 -0.40625 0.296875 -0.375 C 0.296875 -0.300781 0.316406 -0.242188 0.359375 -0.203125 C 0.398438 -0.160156 0.460938 -0.140625 0.546875 -0.140625 C 0.640625 -0.140625 0.71875 -0.164062 0.78125 -0.21875 C 0.84375 -0.28125 0.882812 -0.367188 0.90625 -0.484375 L 1.015625 -1.078125 Z M 1.1875 -1.078125 "/></g></g><g style="fill:#ffffff;fill-opacity:1;"><g transform="translate(142.55909, 32.785787)"><path style="stroke:none" d="M 0.390625 -0.875 C 0.429688 -0.9375 0.484375 -0.988281 0.546875 -1.03125 C 0.609375 -1.070312 0.679688 -1.09375 0.765625 -1.09375 L 0.734375 -0.90625 L 0.6875 -0.90625 C 0.59375 -0.90625 0.515625 -0.878906 0.453125 -0.828125 C 0.390625 -0.785156 0.347656 -0.703125 0.328125 -0.578125 L 0.234375 0 L 0.046875 0 L 0.234375 -1.078125 L 0.421875 -1.078125 Z M 0.390625 -0.875 "/></g></g><g style="fill:#ffffff;fill-opacity:1;"><g transform="translate(143.287243, 32.785787)"><path style="stroke:none" d="M 0.703125 -1.09375 C 0.796875 -1.09375 0.875 -1.070312 0.9375 -1.03125 C 1 -1 1.046875 -0.953125 1.078125 -0.890625 C 1.117188 -0.828125 1.140625 -0.757812 1.140625 -0.6875 C 1.140625 -0.65625 1.132812 -0.617188 1.125 -0.578125 C 1.125 -0.546875 1.117188 -0.507812 1.109375 -0.46875 L 0.25 -0.46875 C 0.25 -0.445312 0.25 -0.429688 0.25 -0.421875 C 0.25 -0.328125 0.273438 -0.253906 0.328125 -0.203125 C 0.378906 -0.160156 0.453125 -0.140625 0.546875 -0.140625 C 0.617188 -0.140625 0.679688 -0.15625 0.734375 -0.1875 C 0.796875 -0.21875 0.84375 -0.265625 0.875 -0.328125 L 1.0625 -0.328125 C 1.019531 -0.222656 0.945312 -0.140625 0.84375 -0.078125 C 0.75 -0.015625 0.640625 0.015625 0.515625 0.015625 C 0.378906 0.015625 0.269531 -0.0195312 0.1875 -0.09375 C 0.101562 -0.175781 0.0625 -0.285156 0.0625 -0.421875 C 0.0625 -0.453125 0.0664062 -0.488281 0.078125 -0.53125 C 0.0976562 -0.644531 0.132812 -0.742188 0.1875 -0.828125 C 0.25 -0.910156 0.320312 -0.972656 0.40625 -1.015625 C 0.5 -1.066406 0.597656 -1.09375 0.703125 -1.09375 Z M 0.953125 -0.609375 C 0.953125 -0.628906 0.953125 -0.648438 0.953125 -0.671875 C 0.953125 -0.753906 0.925781 -0.816406 0.875 -0.859375 C 0.820312 -0.910156 0.753906 -0.9375 0.671875 -0.9375 C 0.578125 -0.9375 0.492188 -0.90625 0.421875 -0.84375 C 0.347656 -0.789062 0.300781 -0.710938 0.28125 -0.609375 Z M 0.953125 -0.609375 "/></g></g><g style="fill:#ffffff;fill-opacity:1;"><g transform="translate(144.497585, 32.785787)"><path style="stroke:none" d="M 0.421875 0.015625 C 0.316406 0.015625 0.226562 -0.0078125 0.15625 -0.0625 C 0.0820312 -0.113281 0.046875 -0.1875 0.046875 -0.28125 C 0.046875 -0.289062 0.046875 -0.300781 0.046875 -0.3125 L 0.21875 -0.3125 C 0.21875 -0.257812 0.234375 -0.210938 0.265625 -0.171875 C 0.304688 -0.140625 0.363281 -0.125 0.4375 -0.125 C 0.507812 -0.125 0.566406 -0.132812 0.609375 -0.15625 C 0.660156 -0.1875 0.6875 -0.226562 0.6875 -0.28125 C 0.6875 -0.320312 0.664062 -0.351562 0.625 -0.375 C 0.59375 -0.40625 0.535156 -0.4375 0.453125 -0.46875 C 0.390625 -0.488281 0.335938 -0.507812 0.296875 -0.53125 C 0.253906 -0.5625 0.21875 -0.59375 0.1875 -0.625 C 0.15625 -0.664062 0.140625 -0.71875 0.140625 -0.78125 C 0.140625 -0.84375 0.15625 -0.894531 0.1875 -0.9375 C 0.226562 -0.988281 0.28125 -1.023438 0.34375 -1.046875 C 0.40625 -1.078125 0.472656 -1.09375 0.546875 -1.09375 C 0.660156 -1.09375 0.75 -1.0625 0.8125 -1 C 0.882812 -0.945312 0.921875 -0.878906 0.921875 -0.796875 C 0.921875 -0.773438 0.921875 -0.757812 0.921875 -0.75 L 0.75 -0.75 L 0.75 -0.78125 C 0.75 -0.832031 0.726562 -0.875 0.6875 -0.90625 C 0.65625 -0.9375 0.601562 -0.953125 0.53125 -0.953125 C 0.46875 -0.953125 0.414062 -0.9375 0.375 -0.90625 C 0.332031 -0.875 0.3125 -0.832031 0.3125 -0.78125 C 0.3125 -0.738281 0.332031 -0.703125 0.375 -0.671875 C 0.414062 -0.648438 0.472656 -0.625 0.546875 -0.59375 C 0.617188 -0.570312 0.671875 -0.546875 0.703125 -0.515625 C 0.742188 -0.492188 0.78125 -0.460938 0.8125 -0.421875 C 0.84375 -0.390625 0.859375 -0.347656 0.859375 -0.296875 C 0.859375 -0.234375 0.835938 -0.175781 0.796875 -0.125 C 0.765625 -0.0820312 0.710938 -0.046875 0.640625 -0.015625 C 0.578125 0.00390625 0.503906 0.015625 0.421875 0.015625 Z M 0.421875 0.015625 "/></g></g></g></svg>